<?xml version="1.0" encoding="UTF-8"?>
<svg version="1.1" xmlns="http://www.w3.org/2000/svg" width="500" height="500">
<path d="M0 0 C165 0 330 0 500 0 C500 165 500 330 500 500 C335 500 170 500 0 500 C0 335 0 170 0 0 Z " fill="#EBF1EE" transform="translate(0,0)"/>
<path d="M0 0 C2 1.625 2 1.625 3 4 C2.93439072 7.739729 2.76345433 10.0603639 0.375 13 C-3.11581787 14.46981805 -5.39148956 13.98413921 -9 13 C-11 11.375 -11 11.375 -12 9 C-11.93439072 5.260271 -11.76345433 2.9396361 -9.375 0 C-5.88418213 -1.46981805 -3.60851044 -0.98413921 0 0 Z " fill="#C7CDCC" transform="translate(454,444)"/>
<path d="M0 0 C2 1.625 2 1.625 3 4 C2.93439072 7.739729 2.76345433 10.0603639 0.375 13 C-3.11581787 14.46981805 -5.39148956 13.98413921 -9 13 C-11 11.375 -11 11.375 -12 9 C-11.93439072 5.260271 -11.76345433 2.9396361 -9.375 0 C-5.88418213 -1.46981805 -3.60851044 -0.98413921 0 0 Z " fill="#C7CDCC" transform="translate(354,444)"/>
<path d="M0 0 C2 1.625 2 1.625 3 4 C2.93439072 7.739729 2.76345433 10.0603639 0.375 13 C-3.11581787 14.46981805 -5.39148956 13.98413921 -9 13 C-11 11.375 -11 11.375 -12 9 C-11.93439072 5.260271 -11.76345433 2.9396361 -9.375 0 C-5.88418213 -1.46981805 -3.60851044 -0.98413921 0 0 Z " fill="#C7CDCC" transform="translate(254,444)"/>
<path d="M0 0 C2 1.625 2 1.625 3 4 C2.93439072 7.739729 2.76345433 10.0603639 0.375 13 C-3.11581787 14.46981805 -5.39148956 13.98413921 -9 13 C-11 11.375 -11 11.375 -12 9 C-11.93439072 5.260271 -11.76345433 2.9396361 -9.375 0 C-5.88418213 -1.46981805 -3.60851044 -0.98413921 0 0 Z " fill="#C7CDCC" transform="translate(154,444)"/>
<path d="M0 0 C2 1.625 2 1.625 3 4 C2.93439072 7.739729 2.76345433 10.0603639 0.375 13 C-3.11581787 14.46981805 -5.39148956 13.98413921 -9 13 C-11 11.375 -11 11.375 -12 9 C-11.93439072 5.260271 -11.76345433 2.9396361 -9.375 0 C-5.88418213 -1.46981805 -3.60851044 -0.98413921 0 0 Z " fill="#C7CDCC" transform="translate(54,444)"/>
<path d="M0 0 C2 1.625 2 1.625 3 4 C2.93439072 7.739729 2.76345433 10.0603639 0.375 13 C-3.11581787 14.46981805 -5.39148956 13.98413921 -9 13 C-11 11.375 -11 11.375 -12 9 C-11.93439072 5.260271 -11.76345433 2.9396361 -9.375 0 C-5.88418213 -1.46981805 -3.60851044 -0.98413921 0 0 Z " fill="#C7CDCC" transform="translate(404,394)"/>
<path d="M0 0 C2 1.625 2 1.625 3 4 C2.93439072 7.739729 2.76345433 10.0603639 0.375 13 C-3.11581787 14.46981805 -5.39148956 13.98413921 -9 13 C-11 11.375 -11 11.375 -12 9 C-11.93439072 5.260271 -11.76345433 2.9396361 -9.375 0 C-5.88418213 -1.46981805 -3.60851044 -0.98413921 0 0 Z " fill="#C7CDCC" transform="translate(304,394)"/>
<path d="M0 0 C2 1.625 2 1.625 3 4 C2.93439072 7.739729 2.76345433 10.0603639 0.375 13 C-3.11581787 14.46981805 -5.39148956 13.98413921 -9 13 C-11 11.375 -11 11.375 -12 9 C-11.93439072 5.260271 -11.76345433 2.9396361 -9.375 0 C-5.88418213 -1.46981805 -3.60851044 -0.98413921 0 0 Z " fill="#C7CDCC" transform="translate(204,394)"/>
<path d="M0 0 C2 1.625 2 1.625 3 4 C2.93439072 7.739729 2.76345433 10.0603639 0.375 13 C-3.11581787 14.46981805 -5.39148956 13.98413921 -9 13 C-11 11.375 -11 11.375 -12 9 C-11.93439072 5.260271 -11.76345433 2.9396361 -9.375 0 C-5.88418213 -1.46981805 -3.60851044 -0.98413921 0 0 Z " fill="#C7CDCC" transform="translate(104,394)"/>
<path d="M0 0 C2 1.625 2 1.625 3 4 C2.93439072 7.739729 2.76345433 10.0603639 0.375 13 C-3.11581787 14.46981805 -5.39148956 13.98413921 -9 13 C-11 11.375 -11 11.375 -12 9 C-11.93439072 5.260271 -11.76345433 2.9396361 -9.375 0 C-5.88418213 -1.46981805 -3.60851044 -0.98413921 0 0 Z " fill="#C7CDCC" transform="translate(454,344)"/>
<path d="M0 0 C2 1.625 2 1.625 3 4 C2.93439072 7.739729 2.76345433 10.0603639 0.375 13 C-3.11581787 14.46981805 -5.39148956 13.98413921 -9 13 C-11 11.375 -11 11.375 -12 9 C-11.93439072 5.260271 -11.76345433 2.9396361 -9.375 0 C-5.88418213 -1.46981805 -3.60851044 -0.98413921 0 0 Z " fill="#C7CDCC" transform="translate(354,344)"/>
<path d="M0 0 C2 1.625 2 1.625 3 4 C2.93439072 7.739729 2.76345433 10.0603639 0.375 13 C-3.11581787 14.46981805 -5.39148956 13.98413921 -9 13 C-11 11.375 -11 11.375 -12 9 C-11.93439072 5.260271 -11.76345433 2.9396361 -9.375 0 C-5.88418213 -1.46981805 -3.60851044 -0.98413921 0 0 Z " fill="#C7CDCC" transform="translate(254,344)"/>
<path d="M0 0 C2 1.625 2 1.625 3 4 C2.93439072 7.739729 2.76345433 10.0603639 0.375 13 C-3.11581787 14.46981805 -5.39148956 13.98413921 -9 13 C-11 11.375 -11 11.375 -12 9 C-11.93439072 5.260271 -11.76345433 2.9396361 -9.375 0 C-5.88418213 -1.46981805 -3.60851044 -0.98413921 0 0 Z " fill="#C7CDCC" transform="translate(154,344)"/>
<path d="M0 0 C2 1.625 2 1.625 3 4 C2.93439072 7.739729 2.76345433 10.0603639 0.375 13 C-3.11581787 14.46981805 -5.39148956 13.98413921 -9 13 C-11 11.375 -11 11.375 -12 9 C-11.93439072 5.260271 -11.76345433 2.9396361 -9.375 0 C-5.88418213 -1.46981805 -3.60851044 -0.98413921 0 0 Z " fill="#C7CDCC" transform="translate(54,344)"/>
<path d="M0 0 C2 1.625 2 1.625 3 4 C2.93439072 7.739729 2.76345433 10.0603639 0.375 13 C-3.11581787 14.46981805 -5.39148956 13.98413921 -9 13 C-11 11.375 -11 11.375 -12 9 C-11.93439072 5.260271 -11.76345433 2.9396361 -9.375 0 C-5.88418213 -1.46981805 -3.60851044 -0.98413921 0 0 Z " fill="#C7CDCC" transform="translate(404,294)"/>
<path d="M0 0 C2 1.625 2 1.625 3 4 C2.93439072 7.739729 2.76345433 10.0603639 0.375 13 C-3.11581787 14.46981805 -5.39148956 13.98413921 -9 13 C-11 11.375 -11 11.375 -12 9 C-11.93439072 5.260271 -11.76345433 2.9396361 -9.375 0 C-5.88418213 -1.46981805 -3.60851044 -0.98413921 0 0 Z " fill="#C7CDCC" transform="translate(304,294)"/>
<path d="M0 0 C2 1.625 2 1.625 3 4 C2.93439072 7.739729 2.76345433 10.0603639 0.375 13 C-3.11581787 14.46981805 -5.39148956 13.98413921 -9 13 C-11 11.375 -11 11.375 -12 9 C-11.93439072 5.260271 -11.76345433 2.9396361 -9.375 0 C-5.88418213 -1.46981805 -3.60851044 -0.98413921 0 0 Z " fill="#C7CDCC" transform="translate(204,294)"/>
<path d="M0 0 C2 1.625 2 1.625 3 4 C2.93439072 7.739729 2.76345433 10.0603639 0.375 13 C-3.11581787 14.46981805 -5.39148956 13.98413921 -9 13 C-11 11.375 -11 11.375 -12 9 C-11.93439072 5.260271 -11.76345433 2.9396361 -9.375 0 C-5.88418213 -1.46981805 -3.60851044 -0.98413921 0 0 Z " fill="#C7CDCC" transform="translate(104,294)"/>
<path d="M0 0 C2 1.625 2 1.625 3 4 C2.93439072 7.739729 2.76345433 10.0603639 0.375 13 C-3.11581787 14.46981805 -5.39148956 13.98413921 -9 13 C-11 11.375 -11 11.375 -12 9 C-11.93439072 5.260271 -11.76345433 2.9396361 -9.375 0 C-5.88418213 -1.46981805 -3.60851044 -0.98413921 0 0 Z " fill="#C7CDCC" transform="translate(454,244)"/>
<path d="M0 0 C2 1.625 2 1.625 3 4 C2.93439072 7.739729 2.76345433 10.0603639 0.375 13 C-3.11581787 14.46981805 -5.39148956 13.98413921 -9 13 C-11 11.375 -11 11.375 -12 9 C-11.93439072 5.260271 -11.76345433 2.9396361 -9.375 0 C-5.88418213 -1.46981805 -3.60851044 -0.98413921 0 0 Z " fill="#C7CDCC" transform="translate(354,244)"/>
<path d="M0 0 C2 1.625 2 1.625 3 4 C2.93439072 7.739729 2.76345433 10.0603639 0.375 13 C-3.11581787 14.46981805 -5.39148956 13.98413921 -9 13 C-11 11.375 -11 11.375 -12 9 C-11.93439072 5.260271 -11.76345433 2.9396361 -9.375 0 C-5.88418213 -1.46981805 -3.60851044 -0.98413921 0 0 Z " fill="#C7CDCC" transform="translate(254,244)"/>
<path d="M0 0 C2 1.625 2 1.625 3 4 C2.93439072 7.739729 2.76345433 10.0603639 0.375 13 C-3.11581787 14.46981805 -5.39148956 13.98413921 -9 13 C-11 11.375 -11 11.375 -12 9 C-11.93439072 5.260271 -11.76345433 2.9396361 -9.375 0 C-5.88418213 -1.46981805 -3.60851044 -0.98413921 0 0 Z " fill="#C7CDCC" transform="translate(154,244)"/>
<path d="M0 0 C2 1.625 2 1.625 3 4 C2.93439072 7.739729 2.76345433 10.0603639 0.375 13 C-3.11581787 14.46981805 -5.39148956 13.98413921 -9 13 C-11 11.375 -11 11.375 -12 9 C-11.93439072 5.260271 -11.76345433 2.9396361 -9.375 0 C-5.88418213 -1.46981805 -3.60851044 -0.98413921 0 0 Z " fill="#C7CDCC" transform="translate(54,244)"/>
<path d="M0 0 C2 1.625 2 1.625 3 4 C2.93439072 7.739729 2.76345433 10.0603639 0.375 13 C-3.11581787 14.46981805 -5.39148956 13.98413921 -9 13 C-11 11.375 -11 11.375 -12 9 C-11.93439072 5.260271 -11.76345433 2.9396361 -9.375 0 C-5.88418213 -1.46981805 -3.60851044 -0.98413921 0 0 Z " fill="#C7CDCC" transform="translate(404,194)"/>
<path d="M0 0 C2 1.625 2 1.625 3 4 C2.93439072 7.739729 2.76345433 10.0603639 0.375 13 C-3.11581787 14.46981805 -5.39148956 13.98413921 -9 13 C-11 11.375 -11 11.375 -12 9 C-11.93439072 5.260271 -11.76345433 2.9396361 -9.375 0 C-5.88418213 -1.46981805 -3.60851044 -0.98413921 0 0 Z " fill="#C7CDCC" transform="translate(304,194)"/>
<path d="M0 0 C2 1.625 2 1.625 3 4 C2.93439072 7.739729 2.76345433 10.0603639 0.375 13 C-3.11581787 14.46981805 -5.39148956 13.98413921 -9 13 C-11 11.375 -11 11.375 -12 9 C-11.93439072 5.260271 -11.76345433 2.9396361 -9.375 0 C-5.88418213 -1.46981805 -3.60851044 -0.98413921 0 0 Z " fill="#C7CDCC" transform="translate(204,194)"/>
<path d="M0 0 C2 1.625 2 1.625 3 4 C2.93439072 7.739729 2.76345433 10.0603639 0.375 13 C-3.11581787 14.46981805 -5.39148956 13.98413921 -9 13 C-11 11.375 -11 11.375 -12 9 C-11.93439072 5.260271 -11.76345433 2.9396361 -9.375 0 C-5.88418213 -1.46981805 -3.60851044 -0.98413921 0 0 Z " fill="#C7CDCC" transform="translate(104,194)"/>
<path d="M0 0 C2 1.625 2 1.625 3 4 C2.93439072 7.739729 2.76345433 10.0603639 0.375 13 C-3.11581787 14.46981805 -5.39148956 13.98413921 -9 13 C-11 11.375 -11 11.375 -12 9 C-11.93439072 5.260271 -11.76345433 2.9396361 -9.375 0 C-5.88418213 -1.46981805 -3.60851044 -0.98413921 0 0 Z " fill="#C7CDCC" transform="translate(454,144)"/>
<path d="M0 0 C2 1.625 2 1.625 3 4 C2.93439072 7.739729 2.76345433 10.0603639 0.375 13 C-3.11581787 14.46981805 -5.39148956 13.98413921 -9 13 C-11 11.375 -11 11.375 -12 9 C-11.93439072 5.260271 -11.76345433 2.9396361 -9.375 0 C-5.88418213 -1.46981805 -3.60851044 -0.98413921 0 0 Z " fill="#C7CDCC" transform="translate(354,144)"/>
<path d="M0 0 C2 1.625 2 1.625 3 4 C2.93439072 7.739729 2.76345433 10.0603639 0.375 13 C-3.11581787 14.46981805 -5.39148956 13.98413921 -9 13 C-11 11.375 -11 11.375 -12 9 C-11.93439072 5.260271 -11.76345433 2.9396361 -9.375 0 C-5.88418213 -1.46981805 -3.60851044 -0.98413921 0 0 Z " fill="#C7CDCC" transform="translate(254,144)"/>
<path d="M0 0 C2 1.625 2 1.625 3 4 C2.93439072 7.739729 2.76345433 10.0603639 0.375 13 C-3.11581787 14.46981805 -5.39148956 13.98413921 -9 13 C-11 11.375 -11 11.375 -12 9 C-11.93439072 5.260271 -11.76345433 2.9396361 -9.375 0 C-5.88418213 -1.46981805 -3.60851044 -0.98413921 0 0 Z " fill="#C7CDCC" transform="translate(154,144)"/>
<path d="M0 0 C2 1.625 2 1.625 3 4 C2.93439072 7.739729 2.76345433 10.0603639 0.375 13 C-3.11581787 14.46981805 -5.39148956 13.98413921 -9 13 C-11 11.375 -11 11.375 -12 9 C-11.93439072 5.260271 -11.76345433 2.9396361 -9.375 0 C-5.88418213 -1.46981805 -3.60851044 -0.98413921 0 0 Z " fill="#C7CDCC" transform="translate(54,144)"/>
<path d="M0 0 C2 1.625 2 1.625 3 4 C2.93439072 7.739729 2.76345433 10.0603639 0.375 13 C-3.11581787 14.46981805 -5.39148956 13.98413921 -9 13 C-11 11.375 -11 11.375 -12 9 C-11.93439072 5.260271 -11.76345433 2.9396361 -9.375 0 C-5.88418213 -1.46981805 -3.60851044 -0.98413921 0 0 Z " fill="#C7CDCC" transform="translate(404,94)"/>
<path d="M0 0 C2 1.625 2 1.625 3 4 C2.93439072 7.739729 2.76345433 10.0603639 0.375 13 C-3.11581787 14.46981805 -5.39148956 13.98413921 -9 13 C-11 11.375 -11 11.375 -12 9 C-11.93439072 5.260271 -11.76345433 2.9396361 -9.375 0 C-5.88418213 -1.46981805 -3.60851044 -0.98413921 0 0 Z " fill="#C7CDCC" transform="translate(304,94)"/>
<path d="M0 0 C2 1.625 2 1.625 3 4 C2.93439072 7.739729 2.76345433 10.0603639 0.375 13 C-3.11581787 14.46981805 -5.39148956 13.98413921 -9 13 C-11 11.375 -11 11.375 -12 9 C-11.93439072 5.260271 -11.76345433 2.9396361 -9.375 0 C-5.88418213 -1.46981805 -3.60851044 -0.98413921 0 0 Z " fill="#C7CDCC" transform="translate(204,94)"/>
<path d="M0 0 C2 1.625 2 1.625 3 4 C2.93439072 7.739729 2.76345433 10.0603639 0.375 13 C-3.11581787 14.46981805 -5.39148956 13.98413921 -9 13 C-11 11.375 -11 11.375 -12 9 C-11.93439072 5.260271 -11.76345433 2.9396361 -9.375 0 C-5.88418213 -1.46981805 -3.60851044 -0.98413921 0 0 Z " fill="#C7CDCC" transform="translate(104,94)"/>
<path d="M0 0 C2 1.625 2 1.625 3 4 C2.93439072 7.739729 2.76345433 10.0603639 0.375 13 C-3.11581787 14.46981805 -5.39148956 13.98413921 -9 13 C-11 11.375 -11 11.375 -12 9 C-11.93439072 5.260271 -11.76345433 2.9396361 -9.375 0 C-5.88418213 -1.46981805 -3.60851044 -0.98413921 0 0 Z " fill="#C7CDCC" transform="translate(454,44)"/>
<path d="M0 0 C2 1.625 2 1.625 3 4 C2.93439072 7.739729 2.76345433 10.0603639 0.375 13 C-3.11581787 14.46981805 -5.39148956 13.98413921 -9 13 C-11 11.375 -11 11.375 -12 9 C-11.93439072 5.260271 -11.76345433 2.9396361 -9.375 0 C-5.88418213 -1.46981805 -3.60851044 -0.98413921 0 0 Z " fill="#C7CDCC" transform="translate(354,44)"/>
<path d="M0 0 C2 1.625 2 1.625 3 4 C2.93439072 7.739729 2.76345433 10.0603639 0.375 13 C-3.11581787 14.46981805 -5.39148956 13.98413921 -9 13 C-11 11.375 -11 11.375 -12 9 C-11.93439072 5.260271 -11.76345433 2.9396361 -9.375 0 C-5.88418213 -1.46981805 -3.60851044 -0.98413921 0 0 Z " fill="#C7CDCC" transform="translate(254,44)"/>
<path d="M0 0 C2 1.625 2 1.625 3 4 C2.93439072 7.739729 2.76345433 10.0603639 0.375 13 C-3.11581787 14.46981805 -5.39148956 13.98413921 -9 13 C-11 11.375 -11 11.375 -12 9 C-11.93439072 5.260271 -11.76345433 2.9396361 -9.375 0 C-5.88418213 -1.46981805 -3.60851044 -0.98413921 0 0 Z " fill="#C7CDCC" transform="translate(154,44)"/>
<path d="M0 0 C2 1.625 2 1.625 3 4 C2.93439072 7.739729 2.76345433 10.0603639 0.375 13 C-3.11581787 14.46981805 -5.39148956 13.98413921 -9 13 C-11 11.375 -11 11.375 -12 9 C-11.93439072 5.260271 -11.76345433 2.9396361 -9.375 0 C-5.88418213 -1.46981805 -3.60851044 -0.98413921 0 0 Z " fill="#C7CDCC" transform="translate(54,44)"/>
<path d="M0 0 C0 4.95 0 9.9 0 15 C-5 14 -5 14 -6.875 12.375 C-8.52568093 8.89022914 -7.9991864 6.66368347 -7 3 C-4.5091717 0.42614409 -3.61594767 0 0 0 Z " fill="#C1C7C6" transform="translate(500,393)"/>
<path d="M0 0 C0 4.95 0 9.9 0 15 C-5 14 -5 14 -6.875 12.375 C-8.52568093 8.89022914 -7.9991864 6.66368347 -7 3 C-4.5091717 0.42614409 -3.61594767 0 0 0 Z " fill="#C1C7C6" transform="translate(500,293)"/>
<path d="M0 0 C0 4.95 0 9.9 0 15 C-5 14 -5 14 -6.875 12.375 C-8.52568093 8.89022914 -7.9991864 6.66368347 -7 3 C-4.5091717 0.42614409 -3.61594767 0 0 0 Z " fill="#C1C7C6" transform="translate(500,193)"/>
<path d="M0 0 C0 4.95 0 9.9 0 15 C-5 14 -5 14 -6.875 12.375 C-8.52568093 8.89022914 -7.9991864 6.66368347 -7 3 C-4.5091717 0.42614409 -3.61594767 0 0 0 Z " fill="#C1C7C6" transform="translate(500,93)"/>
<path d="M0 0 C4.95 0 9.9 0 15 0 C14 5 14 5 12.375 6.875 C8.89022914 8.52568093 6.66368347 7.9991864 3 7 C1.0625 5.125 1.0625 5.125 0 3 C0 2.01 0 1.02 0 0 Z " fill="#C1C7C6" transform="translate(392,0)"/>
<path d="M0 0 C4.95 0 9.9 0 15 0 C14 5 14 5 12.375 6.875 C8.89022914 8.52568093 6.66368347 7.9991864 3 7 C1.0625 5.125 1.0625 5.125 0 3 C0 2.01 0 1.02 0 0 Z " fill="#C1C7C6" transform="translate(292,0)"/>
<path d="M0 0 C4.95 0 9.9 0 15 0 C14 5 14 5 12.375 6.875 C8.89022914 8.52568093 6.66368347 7.9991864 3 7 C1.0625 5.125 1.0625 5.125 0 3 C0 2.01 0 1.02 0 0 Z " fill="#C1C7C6" transform="translate(192,0)"/>
<path d="M0 0 C4.95 0 9.9 0 15 0 C14 5 14 5 12.375 6.875 C8.89022914 8.52568093 6.66368347 7.9991864 3 7 C1.0625 5.125 1.0625 5.125 0 3 C0 2.01 0 1.02 0 0 Z " fill="#C1C7C6" transform="translate(92,0)"/>
<path d="M0 0 C3.5 0.875 3.5 0.875 5.4375 2.8125 C6.5 4.875 6.5 4.875 6.5 6.875 C1.55 6.875 -3.4 6.875 -8.5 6.875 C-5.66901408 -0.20246479 -5.66901408 -0.20246479 0 0 Z " fill="#CDD4D2" transform="translate(400.5,493.125)"/>
<path d="M0 0 C3.5 0.875 3.5 0.875 5.4375 2.8125 C6.5 4.875 6.5 4.875 6.5 6.875 C1.55 6.875 -3.4 6.875 -8.5 6.875 C-5.66901408 -0.20246479 -5.66901408 -0.20246479 0 0 Z " fill="#CDD3D2" transform="translate(300.5,493.125)"/>
<path d="M0 0 C3.5 0.875 3.5 0.875 5.4375 2.8125 C6.5 4.875 6.5 4.875 6.5 6.875 C1.55 6.875 -3.4 6.875 -8.5 6.875 C-5.66901408 -0.20246479 -5.66901408 -0.20246479 0 0 Z " fill="#CDD3D2" transform="translate(200.5,493.125)"/>
<path d="M0 0 C3.5 0.875 3.5 0.875 5.4375 2.8125 C6.5 4.875 6.5 4.875 6.5 6.875 C1.55 6.875 -3.4 6.875 -8.5 6.875 C-5.66901408 -0.20246479 -5.66901408 -0.20246479 0 0 Z " fill="#CDD3D2" transform="translate(100.5,493.125)"/>
<path d="M0 0 C5 2 5 2 7 5 C6.77777778 11.22222222 6.77777778 11.22222222 4.0625 13.9375 C2 15 2 15 0 15 C0 10.05 0 5.1 0 0 Z " fill="#CED4D3" transform="translate(0,393)"/>
<path d="M0 0 C5 2 5 2 7 5 C6.77777778 11.22222222 6.77777778 11.22222222 4.0625 13.9375 C2 15 2 15 0 15 C0 10.05 0 5.1 0 0 Z " fill="#CED4D3" transform="translate(0,293)"/>
<path d="M0 0 C5 2 5 2 7 5 C6.77777778 11.22222222 6.77777778 11.22222222 4.0625 13.9375 C2 15 2 15 0 15 C0 10.05 0 5.1 0 0 Z " fill="#CED4D3" transform="translate(0,193)"/>
<path d="M0 0 C5 2 5 2 7 5 C6.77777778 11.22222222 6.77777778 11.22222222 4.0625 13.9375 C2 15 2 15 0 15 C0 10.05 0 5.1 0 0 Z " fill="#CED4D3" transform="translate(0,93)"/>
<path d="M0 0 C2 1.625 2 1.625 3 4 C2.93439072 7.739729 2.76345433 10.0603639 0.375 13 C-3.11581787 14.46981805 -5.39148956 13.98413921 -9 13 C-11 11.375 -11 11.375 -12 9 C-11.93439072 5.260271 -11.76345433 2.9396361 -9.375 0 C-5.88418213 -1.46981805 -3.60851044 -0.98413921 0 0 Z M-8.8125 2.1875 C-10.42525784 4.64907776 -10.4334014 6.11065736 -10 9 C-8.91666667 10.91666667 -8.91666667 10.91666667 -7 12 C-4.11065736 12.4334014 -2.64907776 12.42525784 -0.1875 10.8125 C1.42525784 8.35092224 1.4334014 6.88934264 1 4 C-0.08333333 2.08333333 -0.08333333 2.08333333 -2 1 C-4.88934264 0.5665986 -6.35092224 0.57474216 -8.8125 2.1875 Z " fill="#292F37" transform="translate(454,444)"/>
<path d="M0 0 C2 1.625 2 1.625 3 4 C2.93439072 7.739729 2.76345433 10.0603639 0.375 13 C-3.11581787 14.46981805 -5.39148956 13.98413921 -9 13 C-11 11.375 -11 11.375 -12 9 C-11.93439072 5.260271 -11.76345433 2.9396361 -9.375 0 C-5.88418213 -1.46981805 -3.60851044 -0.98413921 0 0 Z M-8.8125 2.1875 C-10.42525784 4.64907776 -10.4334014 6.11065736 -10 9 C-8.91666667 10.91666667 -8.91666667 10.91666667 -7 12 C-4.11065736 12.4334014 -2.64907776 12.42525784 -0.1875 10.8125 C1.42525784 8.35092224 1.4334014 6.88934264 1 4 C-0.08333333 2.08333333 -0.08333333 2.08333333 -2 1 C-4.88934264 0.5665986 -6.35092224 0.57474216 -8.8125 2.1875 Z " fill="#292F37" transform="translate(354,444)"/>
<path d="M0 0 C2 1.625 2 1.625 3 4 C2.93439072 7.739729 2.76345433 10.0603639 0.375 13 C-3.11581787 14.46981805 -5.39148956 13.98413921 -9 13 C-11 11.375 -11 11.375 -12 9 C-11.93439072 5.260271 -11.76345433 2.9396361 -9.375 0 C-5.88418213 -1.46981805 -3.60851044 -0.98413921 0 0 Z M-8.8125 2.1875 C-10.42525784 4.64907776 -10.4334014 6.11065736 -10 9 C-8.91666667 10.91666667 -8.91666667 10.91666667 -7 12 C-4.11065736 12.4334014 -2.64907776 12.42525784 -0.1875 10.8125 C1.42525784 8.35092224 1.4334014 6.88934264 1 4 C-0.08333333 2.08333333 -0.08333333 2.08333333 -2 1 C-4.88934264 0.5665986 -6.35092224 0.57474216 -8.8125 2.1875 Z " fill="#292F37" transform="translate(254,444)"/>
<path d="M0 0 C2 1.625 2 1.625 3 4 C2.93439072 7.739729 2.76345433 10.0603639 0.375 13 C-3.11581787 14.46981805 -5.39148956 13.98413921 -9 13 C-11 11.375 -11 11.375 -12 9 C-11.93439072 5.260271 -11.76345433 2.9396361 -9.375 0 C-5.88418213 -1.46981805 -3.60851044 -0.98413921 0 0 Z M-8.8125 2.1875 C-10.42525784 4.64907776 -10.4334014 6.11065736 -10 9 C-8.91666667 10.91666667 -8.91666667 10.91666667 -7 12 C-4.11065736 12.4334014 -2.64907776 12.42525784 -0.1875 10.8125 C1.42525784 8.35092224 1.4334014 6.88934264 1 4 C-0.08333333 2.08333333 -0.08333333 2.08333333 -2 1 C-4.88934264 0.5665986 -6.35092224 0.57474216 -8.8125 2.1875 Z " fill="#292F37" transform="translate(154,444)"/>
<path d="M0 0 C2 1.625 2 1.625 3 4 C2.93439072 7.739729 2.76345433 10.0603639 0.375 13 C-3.11581787 14.46981805 -5.39148956 13.98413921 -9 13 C-11 11.375 -11 11.375 -12 9 C-11.93439072 5.260271 -11.76345433 2.9396361 -9.375 0 C-5.88418213 -1.46981805 -3.60851044 -0.98413921 0 0 Z M-8.8125 2.1875 C-10.42525784 4.64907776 -10.4334014 6.11065736 -10 9 C-8.91666667 10.91666667 -8.91666667 10.91666667 -7 12 C-4.11065736 12.4334014 -2.64907776 12.42525784 -0.1875 10.8125 C1.42525784 8.35092224 1.4334014 6.88934264 1 4 C-0.08333333 2.08333333 -0.08333333 2.08333333 -2 1 C-4.88934264 0.5665986 -6.35092224 0.57474216 -8.8125 2.1875 Z " fill="#292F37" transform="translate(54,444)"/>
<path d="M0 0 C2 1.625 2 1.625 3 4 C2.93439072 7.739729 2.76345433 10.0603639 0.375 13 C-3.11581787 14.46981805 -5.39148956 13.98413921 -9 13 C-11 11.375 -11 11.375 -12 9 C-11.93439072 5.260271 -11.76345433 2.9396361 -9.375 0 C-5.88418213 -1.46981805 -3.60851044 -0.98413921 0 0 Z M-8.8125 2.1875 C-10.42525784 4.64907776 -10.4334014 6.11065736 -10 9 C-8.91666667 10.91666667 -8.91666667 10.91666667 -7 12 C-4.11065736 12.4334014 -2.64907776 12.42525784 -0.1875 10.8125 C1.42525784 8.35092224 1.4334014 6.88934264 1 4 C-0.08333333 2.08333333 -0.08333333 2.08333333 -2 1 C-4.88934264 0.5665986 -6.35092224 0.57474216 -8.8125 2.1875 Z " fill="#292F37" transform="translate(404,394)"/>
<path d="M0 0 C2 1.625 2 1.625 3 4 C2.93439072 7.739729 2.76345433 10.0603639 0.375 13 C-3.11581787 14.46981805 -5.39148956 13.98413921 -9 13 C-11 11.375 -11 11.375 -12 9 C-11.93439072 5.260271 -11.76345433 2.9396361 -9.375 0 C-5.88418213 -1.46981805 -3.60851044 -0.98413921 0 0 Z M-8.8125 2.1875 C-10.42525784 4.64907776 -10.4334014 6.11065736 -10 9 C-8.91666667 10.91666667 -8.91666667 10.91666667 -7 12 C-4.11065736 12.4334014 -2.64907776 12.42525784 -0.1875 10.8125 C1.42525784 8.35092224 1.4334014 6.88934264 1 4 C-0.08333333 2.08333333 -0.08333333 2.08333333 -2 1 C-4.88934264 0.5665986 -6.35092224 0.57474216 -8.8125 2.1875 Z " fill="#292F37" transform="translate(304,394)"/>
<path d="M0 0 C2 1.625 2 1.625 3 4 C2.93439072 7.739729 2.76345433 10.0603639 0.375 13 C-3.11581787 14.46981805 -5.39148956 13.98413921 -9 13 C-11 11.375 -11 11.375 -12 9 C-11.93439072 5.260271 -11.76345433 2.9396361 -9.375 0 C-5.88418213 -1.46981805 -3.60851044 -0.98413921 0 0 Z M-8.8125 2.1875 C-10.42525784 4.64907776 -10.4334014 6.11065736 -10 9 C-8.91666667 10.91666667 -8.91666667 10.91666667 -7 12 C-4.11065736 12.4334014 -2.64907776 12.42525784 -0.1875 10.8125 C1.42525784 8.35092224 1.4334014 6.88934264 1 4 C-0.08333333 2.08333333 -0.08333333 2.08333333 -2 1 C-4.88934264 0.5665986 -6.35092224 0.57474216 -8.8125 2.1875 Z " fill="#292F37" transform="translate(204,394)"/>
<path d="M0 0 C2 1.625 2 1.625 3 4 C2.93439072 7.739729 2.76345433 10.0603639 0.375 13 C-3.11581787 14.46981805 -5.39148956 13.98413921 -9 13 C-11 11.375 -11 11.375 -12 9 C-11.93439072 5.260271 -11.76345433 2.9396361 -9.375 0 C-5.88418213 -1.46981805 -3.60851044 -0.98413921 0 0 Z M-8.8125 2.1875 C-10.42525784 4.64907776 -10.4334014 6.11065736 -10 9 C-8.91666667 10.91666667 -8.91666667 10.91666667 -7 12 C-4.11065736 12.4334014 -2.64907776 12.42525784 -0.1875 10.8125 C1.42525784 8.35092224 1.4334014 6.88934264 1 4 C-0.08333333 2.08333333 -0.08333333 2.08333333 -2 1 C-4.88934264 0.5665986 -6.35092224 0.57474216 -8.8125 2.1875 Z " fill="#292F37" transform="translate(104,394)"/>
<path d="M0 0 C2 1.625 2 1.625 3 4 C2.93439072 7.739729 2.76345433 10.0603639 0.375 13 C-3.11581787 14.46981805 -5.39148956 13.98413921 -9 13 C-11 11.375 -11 11.375 -12 9 C-11.93439072 5.260271 -11.76345433 2.9396361 -9.375 0 C-5.88418213 -1.46981805 -3.60851044 -0.98413921 0 0 Z M-8.8125 2.1875 C-10.42525784 4.64907776 -10.4334014 6.11065736 -10 9 C-8.91666667 10.91666667 -8.91666667 10.91666667 -7 12 C-4.11065736 12.4334014 -2.64907776 12.42525784 -0.1875 10.8125 C1.42525784 8.35092224 1.4334014 6.88934264 1 4 C-0.08333333 2.08333333 -0.08333333 2.08333333 -2 1 C-4.88934264 0.5665986 -6.35092224 0.57474216 -8.8125 2.1875 Z " fill="#292F37" transform="translate(454,344)"/>
<path d="M0 0 C2 1.625 2 1.625 3 4 C2.93439072 7.739729 2.76345433 10.0603639 0.375 13 C-3.11581787 14.46981805 -5.39148956 13.98413921 -9 13 C-11 11.375 -11 11.375 -12 9 C-11.93439072 5.260271 -11.76345433 2.9396361 -9.375 0 C-5.88418213 -1.46981805 -3.60851044 -0.98413921 0 0 Z M-8.8125 2.1875 C-10.42525784 4.64907776 -10.4334014 6.11065736 -10 9 C-8.91666667 10.91666667 -8.91666667 10.91666667 -7 12 C-4.11065736 12.4334014 -2.64907776 12.42525784 -0.1875 10.8125 C1.42525784 8.35092224 1.4334014 6.88934264 1 4 C-0.08333333 2.08333333 -0.08333333 2.08333333 -2 1 C-4.88934264 0.5665986 -6.35092224 0.57474216 -8.8125 2.1875 Z " fill="#292F37" transform="translate(354,344)"/>
<path d="M0 0 C2 1.625 2 1.625 3 4 C2.93439072 7.739729 2.76345433 10.0603639 0.375 13 C-3.11581787 14.46981805 -5.39148956 13.98413921 -9 13 C-11 11.375 -11 11.375 -12 9 C-11.93439072 5.260271 -11.76345433 2.9396361 -9.375 0 C-5.88418213 -1.46981805 -3.60851044 -0.98413921 0 0 Z M-8.8125 2.1875 C-10.42525784 4.64907776 -10.4334014 6.11065736 -10 9 C-8.91666667 10.91666667 -8.91666667 10.91666667 -7 12 C-4.11065736 12.4334014 -2.64907776 12.42525784 -0.1875 10.8125 C1.42525784 8.35092224 1.4334014 6.88934264 1 4 C-0.08333333 2.08333333 -0.08333333 2.08333333 -2 1 C-4.88934264 0.5665986 -6.35092224 0.57474216 -8.8125 2.1875 Z " fill="#292F37" transform="translate(254,344)"/>
<path d="M0 0 C2 1.625 2 1.625 3 4 C2.93439072 7.739729 2.76345433 10.0603639 0.375 13 C-3.11581787 14.46981805 -5.39148956 13.98413921 -9 13 C-11 11.375 -11 11.375 -12 9 C-11.93439072 5.260271 -11.76345433 2.9396361 -9.375 0 C-5.88418213 -1.46981805 -3.60851044 -0.98413921 0 0 Z M-8.8125 2.1875 C-10.42525784 4.64907776 -10.4334014 6.11065736 -10 9 C-8.91666667 10.91666667 -8.91666667 10.91666667 -7 12 C-4.11065736 12.4334014 -2.64907776 12.42525784 -0.1875 10.8125 C1.42525784 8.35092224 1.4334014 6.88934264 1 4 C-0.08333333 2.08333333 -0.08333333 2.08333333 -2 1 C-4.88934264 0.5665986 -6.35092224 0.57474216 -8.8125 2.1875 Z " fill="#292F37" transform="translate(154,344)"/>
<path d="M0 0 C2 1.625 2 1.625 3 4 C2.93439072 7.739729 2.76345433 10.0603639 0.375 13 C-3.11581787 14.46981805 -5.39148956 13.98413921 -9 13 C-11 11.375 -11 11.375 -12 9 C-11.93439072 5.260271 -11.76345433 2.9396361 -9.375 0 C-5.88418213 -1.46981805 -3.60851044 -0.98413921 0 0 Z M-8.8125 2.1875 C-10.42525784 4.64907776 -10.4334014 6.11065736 -10 9 C-8.91666667 10.91666667 -8.91666667 10.91666667 -7 12 C-4.11065736 12.4334014 -2.64907776 12.42525784 -0.1875 10.8125 C1.42525784 8.35092224 1.4334014 6.88934264 1 4 C-0.08333333 2.08333333 -0.08333333 2.08333333 -2 1 C-4.88934264 0.5665986 -6.35092224 0.57474216 -8.8125 2.1875 Z " fill="#292F37" transform="translate(54,344)"/>
<path d="M0 0 C2 1.625 2 1.625 3 4 C2.93439072 7.739729 2.76345433 10.0603639 0.375 13 C-3.11581787 14.46981805 -5.39148956 13.98413921 -9 13 C-11 11.375 -11 11.375 -12 9 C-11.93439072 5.260271 -11.76345433 2.9396361 -9.375 0 C-5.88418213 -1.46981805 -3.60851044 -0.98413921 0 0 Z M-8.8125 2.1875 C-10.42525784 4.64907776 -10.4334014 6.11065736 -10 9 C-8.91666667 10.91666667 -8.91666667 10.91666667 -7 12 C-4.11065736 12.4334014 -2.64907776 12.42525784 -0.1875 10.8125 C1.42525784 8.35092224 1.4334014 6.88934264 1 4 C-0.08333333 2.08333333 -0.08333333 2.08333333 -2 1 C-4.88934264 0.5665986 -6.35092224 0.57474216 -8.8125 2.1875 Z " fill="#292F37" transform="translate(404,294)"/>
<path d="M0 0 C2 1.625 2 1.625 3 4 C2.93439072 7.739729 2.76345433 10.0603639 0.375 13 C-3.11581787 14.46981805 -5.39148956 13.98413921 -9 13 C-11 11.375 -11 11.375 -12 9 C-11.93439072 5.260271 -11.76345433 2.9396361 -9.375 0 C-5.88418213 -1.46981805 -3.60851044 -0.98413921 0 0 Z M-8.8125 2.1875 C-10.42525784 4.64907776 -10.4334014 6.11065736 -10 9 C-8.91666667 10.91666667 -8.91666667 10.91666667 -7 12 C-4.11065736 12.4334014 -2.64907776 12.42525784 -0.1875 10.8125 C1.42525784 8.35092224 1.4334014 6.88934264 1 4 C-0.08333333 2.08333333 -0.08333333 2.08333333 -2 1 C-4.88934264 0.5665986 -6.35092224 0.57474216 -8.8125 2.1875 Z " fill="#292F37" transform="translate(304,294)"/>
<path d="M0 0 C2 1.625 2 1.625 3 4 C2.93439072 7.739729 2.76345433 10.0603639 0.375 13 C-3.11581787 14.46981805 -5.39148956 13.98413921 -9 13 C-11 11.375 -11 11.375 -12 9 C-11.93439072 5.260271 -11.76345433 2.9396361 -9.375 0 C-5.88418213 -1.46981805 -3.60851044 -0.98413921 0 0 Z M-8.8125 2.1875 C-10.42525784 4.64907776 -10.4334014 6.11065736 -10 9 C-8.91666667 10.91666667 -8.91666667 10.91666667 -7 12 C-4.11065736 12.4334014 -2.64907776 12.42525784 -0.1875 10.8125 C1.42525784 8.35092224 1.4334014 6.88934264 1 4 C-0.08333333 2.08333333 -0.08333333 2.08333333 -2 1 C-4.88934264 0.5665986 -6.35092224 0.57474216 -8.8125 2.1875 Z " fill="#292F37" transform="translate(204,294)"/>
<path d="M0 0 C2 1.625 2 1.625 3 4 C2.93439072 7.739729 2.76345433 10.0603639 0.375 13 C-3.11581787 14.46981805 -5.39148956 13.98413921 -9 13 C-11 11.375 -11 11.375 -12 9 C-11.93439072 5.260271 -11.76345433 2.9396361 -9.375 0 C-5.88418213 -1.46981805 -3.60851044 -0.98413921 0 0 Z M-8.8125 2.1875 C-10.42525784 4.64907776 -10.4334014 6.11065736 -10 9 C-8.91666667 10.91666667 -8.91666667 10.91666667 -7 12 C-4.11065736 12.4334014 -2.64907776 12.42525784 -0.1875 10.8125 C1.42525784 8.35092224 1.4334014 6.88934264 1 4 C-0.08333333 2.08333333 -0.08333333 2.08333333 -2 1 C-4.88934264 0.5665986 -6.35092224 0.57474216 -8.8125 2.1875 Z " fill="#292F37" transform="translate(104,294)"/>
<path d="M0 0 C2 1.625 2 1.625 3 4 C2.93439072 7.739729 2.76345433 10.0603639 0.375 13 C-3.11581787 14.46981805 -5.39148956 13.98413921 -9 13 C-11 11.375 -11 11.375 -12 9 C-11.93439072 5.260271 -11.76345433 2.9396361 -9.375 0 C-5.88418213 -1.46981805 -3.60851044 -0.98413921 0 0 Z M-8.8125 2.1875 C-10.42525784 4.64907776 -10.4334014 6.11065736 -10 9 C-8.91666667 10.91666667 -8.91666667 10.91666667 -7 12 C-4.11065736 12.4334014 -2.64907776 12.42525784 -0.1875 10.8125 C1.42525784 8.35092224 1.4334014 6.88934264 1 4 C-0.08333333 2.08333333 -0.08333333 2.08333333 -2 1 C-4.88934264 0.5665986 -6.35092224 0.57474216 -8.8125 2.1875 Z " fill="#292F37" transform="translate(454,244)"/>
<path d="M0 0 C2 1.625 2 1.625 3 4 C2.93439072 7.739729 2.76345433 10.0603639 0.375 13 C-3.11581787 14.46981805 -5.39148956 13.98413921 -9 13 C-11 11.375 -11 11.375 -12 9 C-11.93439072 5.260271 -11.76345433 2.9396361 -9.375 0 C-5.88418213 -1.46981805 -3.60851044 -0.98413921 0 0 Z M-8.8125 2.1875 C-10.42525784 4.64907776 -10.4334014 6.11065736 -10 9 C-8.91666667 10.91666667 -8.91666667 10.91666667 -7 12 C-4.11065736 12.4334014 -2.64907776 12.42525784 -0.1875 10.8125 C1.42525784 8.35092224 1.4334014 6.88934264 1 4 C-0.08333333 2.08333333 -0.08333333 2.08333333 -2 1 C-4.88934264 0.5665986 -6.35092224 0.57474216 -8.8125 2.1875 Z " fill="#292F37" transform="translate(354,244)"/>
<path d="M0 0 C2 1.625 2 1.625 3 4 C2.93439072 7.739729 2.76345433 10.0603639 0.375 13 C-3.11581787 14.46981805 -5.39148956 13.98413921 -9 13 C-11 11.375 -11 11.375 -12 9 C-11.93439072 5.260271 -11.76345433 2.9396361 -9.375 0 C-5.88418213 -1.46981805 -3.60851044 -0.98413921 0 0 Z M-8.8125 2.1875 C-10.42525784 4.64907776 -10.4334014 6.11065736 -10 9 C-8.91666667 10.91666667 -8.91666667 10.91666667 -7 12 C-4.11065736 12.4334014 -2.64907776 12.42525784 -0.1875 10.8125 C1.42525784 8.35092224 1.4334014 6.88934264 1 4 C-0.08333333 2.08333333 -0.08333333 2.08333333 -2 1 C-4.88934264 0.5665986 -6.35092224 0.57474216 -8.8125 2.1875 Z " fill="#292F37" transform="translate(254,244)"/>
<path d="M0 0 C2 1.625 2 1.625 3 4 C2.93439072 7.739729 2.76345433 10.0603639 0.375 13 C-3.11581787 14.46981805 -5.39148956 13.98413921 -9 13 C-11 11.375 -11 11.375 -12 9 C-11.93439072 5.260271 -11.76345433 2.9396361 -9.375 0 C-5.88418213 -1.46981805 -3.60851044 -0.98413921 0 0 Z M-8.8125 2.1875 C-10.42525784 4.64907776 -10.4334014 6.11065736 -10 9 C-8.91666667 10.91666667 -8.91666667 10.91666667 -7 12 C-4.11065736 12.4334014 -2.64907776 12.42525784 -0.1875 10.8125 C1.42525784 8.35092224 1.4334014 6.88934264 1 4 C-0.08333333 2.08333333 -0.08333333 2.08333333 -2 1 C-4.88934264 0.5665986 -6.35092224 0.57474216 -8.8125 2.1875 Z " fill="#292F37" transform="translate(154,244)"/>
<path d="M0 0 C2 1.625 2 1.625 3 4 C2.93439072 7.739729 2.76345433 10.0603639 0.375 13 C-3.11581787 14.46981805 -5.39148956 13.98413921 -9 13 C-11 11.375 -11 11.375 -12 9 C-11.93439072 5.260271 -11.76345433 2.9396361 -9.375 0 C-5.88418213 -1.46981805 -3.60851044 -0.98413921 0 0 Z M-8.8125 2.1875 C-10.42525784 4.64907776 -10.4334014 6.11065736 -10 9 C-8.91666667 10.91666667 -8.91666667 10.91666667 -7 12 C-4.11065736 12.4334014 -2.64907776 12.42525784 -0.1875 10.8125 C1.42525784 8.35092224 1.4334014 6.88934264 1 4 C-0.08333333 2.08333333 -0.08333333 2.08333333 -2 1 C-4.88934264 0.5665986 -6.35092224 0.57474216 -8.8125 2.1875 Z " fill="#292F37" transform="translate(54,244)"/>
<path d="M0 0 C2 1.625 2 1.625 3 4 C2.93439072 7.739729 2.76345433 10.0603639 0.375 13 C-3.11581787 14.46981805 -5.39148956 13.98413921 -9 13 C-11 11.375 -11 11.375 -12 9 C-11.93439072 5.260271 -11.76345433 2.9396361 -9.375 0 C-5.88418213 -1.46981805 -3.60851044 -0.98413921 0 0 Z M-8.8125 2.1875 C-10.42525784 4.64907776 -10.4334014 6.11065736 -10 9 C-8.91666667 10.91666667 -8.91666667 10.91666667 -7 12 C-4.11065736 12.4334014 -2.64907776 12.42525784 -0.1875 10.8125 C1.42525784 8.35092224 1.4334014 6.88934264 1 4 C-0.08333333 2.08333333 -0.08333333 2.08333333 -2 1 C-4.88934264 0.5665986 -6.35092224 0.57474216 -8.8125 2.1875 Z " fill="#292F37" transform="translate(404,194)"/>
<path d="M0 0 C2 1.625 2 1.625 3 4 C2.93439072 7.739729 2.76345433 10.0603639 0.375 13 C-3.11581787 14.46981805 -5.39148956 13.98413921 -9 13 C-11 11.375 -11 11.375 -12 9 C-11.93439072 5.260271 -11.76345433 2.9396361 -9.375 0 C-5.88418213 -1.46981805 -3.60851044 -0.98413921 0 0 Z M-8.8125 2.1875 C-10.42525784 4.64907776 -10.4334014 6.11065736 -10 9 C-8.91666667 10.91666667 -8.91666667 10.91666667 -7 12 C-4.11065736 12.4334014 -2.64907776 12.42525784 -0.1875 10.8125 C1.42525784 8.35092224 1.4334014 6.88934264 1 4 C-0.08333333 2.08333333 -0.08333333 2.08333333 -2 1 C-4.88934264 0.5665986 -6.35092224 0.57474216 -8.8125 2.1875 Z " fill="#292F37" transform="translate(304,194)"/>
<path d="M0 0 C2 1.625 2 1.625 3 4 C2.93439072 7.739729 2.76345433 10.0603639 0.375 13 C-3.11581787 14.46981805 -5.39148956 13.98413921 -9 13 C-11 11.375 -11 11.375 -12 9 C-11.93439072 5.260271 -11.76345433 2.9396361 -9.375 0 C-5.88418213 -1.46981805 -3.60851044 -0.98413921 0 0 Z M-8.8125 2.1875 C-10.42525784 4.64907776 -10.4334014 6.11065736 -10 9 C-8.91666667 10.91666667 -8.91666667 10.91666667 -7 12 C-4.11065736 12.4334014 -2.64907776 12.42525784 -0.1875 10.8125 C1.42525784 8.35092224 1.4334014 6.88934264 1 4 C-0.08333333 2.08333333 -0.08333333 2.08333333 -2 1 C-4.88934264 0.5665986 -6.35092224 0.57474216 -8.8125 2.1875 Z " fill="#292F37" transform="translate(204,194)"/>
<path d="M0 0 C2 1.625 2 1.625 3 4 C2.93439072 7.739729 2.76345433 10.0603639 0.375 13 C-3.11581787 14.46981805 -5.39148956 13.98413921 -9 13 C-11 11.375 -11 11.375 -12 9 C-11.93439072 5.260271 -11.76345433 2.9396361 -9.375 0 C-5.88418213 -1.46981805 -3.60851044 -0.98413921 0 0 Z M-8.8125 2.1875 C-10.42525784 4.64907776 -10.4334014 6.11065736 -10 9 C-8.91666667 10.91666667 -8.91666667 10.91666667 -7 12 C-4.11065736 12.4334014 -2.64907776 12.42525784 -0.1875 10.8125 C1.42525784 8.35092224 1.4334014 6.88934264 1 4 C-0.08333333 2.08333333 -0.08333333 2.08333333 -2 1 C-4.88934264 0.5665986 -6.35092224 0.57474216 -8.8125 2.1875 Z " fill="#292F37" transform="translate(104,194)"/>
<path d="M0 0 C2 1.625 2 1.625 3 4 C2.93439072 7.739729 2.76345433 10.0603639 0.375 13 C-3.11581787 14.46981805 -5.39148956 13.98413921 -9 13 C-11 11.375 -11 11.375 -12 9 C-11.93439072 5.260271 -11.76345433 2.9396361 -9.375 0 C-5.88418213 -1.46981805 -3.60851044 -0.98413921 0 0 Z M-8.8125 2.1875 C-10.42525784 4.64907776 -10.4334014 6.11065736 -10 9 C-8.91666667 10.91666667 -8.91666667 10.91666667 -7 12 C-4.11065736 12.4334014 -2.64907776 12.42525784 -0.1875 10.8125 C1.42525784 8.35092224 1.4334014 6.88934264 1 4 C-0.08333333 2.08333333 -0.08333333 2.08333333 -2 1 C-4.88934264 0.5665986 -6.35092224 0.57474216 -8.8125 2.1875 Z " fill="#292F37" transform="translate(454,144)"/>
<path d="M0 0 C2 1.625 2 1.625 3 4 C2.93439072 7.739729 2.76345433 10.0603639 0.375 13 C-3.11581787 14.46981805 -5.39148956 13.98413921 -9 13 C-11 11.375 -11 11.375 -12 9 C-11.93439072 5.260271 -11.76345433 2.9396361 -9.375 0 C-5.88418213 -1.46981805 -3.60851044 -0.98413921 0 0 Z M-8.8125 2.1875 C-10.42525784 4.64907776 -10.4334014 6.11065736 -10 9 C-8.91666667 10.91666667 -8.91666667 10.91666667 -7 12 C-4.11065736 12.4334014 -2.64907776 12.42525784 -0.1875 10.8125 C1.42525784 8.35092224 1.4334014 6.88934264 1 4 C-0.08333333 2.08333333 -0.08333333 2.08333333 -2 1 C-4.88934264 0.5665986 -6.35092224 0.57474216 -8.8125 2.1875 Z " fill="#292F37" transform="translate(354,144)"/>
<path d="M0 0 C2 1.625 2 1.625 3 4 C2.93439072 7.739729 2.76345433 10.0603639 0.375 13 C-3.11581787 14.46981805 -5.39148956 13.98413921 -9 13 C-11 11.375 -11 11.375 -12 9 C-11.93439072 5.260271 -11.76345433 2.9396361 -9.375 0 C-5.88418213 -1.46981805 -3.60851044 -0.98413921 0 0 Z M-8.8125 2.1875 C-10.42525784 4.64907776 -10.4334014 6.11065736 -10 9 C-8.91666667 10.91666667 -8.91666667 10.91666667 -7 12 C-4.11065736 12.4334014 -2.64907776 12.42525784 -0.1875 10.8125 C1.42525784 8.35092224 1.4334014 6.88934264 1 4 C-0.08333333 2.08333333 -0.08333333 2.08333333 -2 1 C-4.88934264 0.5665986 -6.35092224 0.57474216 -8.8125 2.1875 Z " fill="#292F37" transform="translate(254,144)"/>
<path d="M0 0 C2 1.625 2 1.625 3 4 C2.93439072 7.739729 2.76345433 10.0603639 0.375 13 C-3.11581787 14.46981805 -5.39148956 13.98413921 -9 13 C-11 11.375 -11 11.375 -12 9 C-11.93439072 5.260271 -11.76345433 2.9396361 -9.375 0 C-5.88418213 -1.46981805 -3.60851044 -0.98413921 0 0 Z M-8.8125 2.1875 C-10.42525784 4.64907776 -10.4334014 6.11065736 -10 9 C-8.91666667 10.91666667 -8.91666667 10.91666667 -7 12 C-4.11065736 12.4334014 -2.64907776 12.42525784 -0.1875 10.8125 C1.42525784 8.35092224 1.4334014 6.88934264 1 4 C-0.08333333 2.08333333 -0.08333333 2.08333333 -2 1 C-4.88934264 0.5665986 -6.35092224 0.57474216 -8.8125 2.1875 Z " fill="#292F37" transform="translate(154,144)"/>
<path d="M0 0 C2 1.625 2 1.625 3 4 C2.93439072 7.739729 2.76345433 10.0603639 0.375 13 C-3.11581787 14.46981805 -5.39148956 13.98413921 -9 13 C-11 11.375 -11 11.375 -12 9 C-11.93439072 5.260271 -11.76345433 2.9396361 -9.375 0 C-5.88418213 -1.46981805 -3.60851044 -0.98413921 0 0 Z M-8.8125 2.1875 C-10.42525784 4.64907776 -10.4334014 6.11065736 -10 9 C-8.91666667 10.91666667 -8.91666667 10.91666667 -7 12 C-4.11065736 12.4334014 -2.64907776 12.42525784 -0.1875 10.8125 C1.42525784 8.35092224 1.4334014 6.88934264 1 4 C-0.08333333 2.08333333 -0.08333333 2.08333333 -2 1 C-4.88934264 0.5665986 -6.35092224 0.57474216 -8.8125 2.1875 Z " fill="#292F37" transform="translate(54,144)"/>
<path d="M0 0 C2 1.625 2 1.625 3 4 C2.93439072 7.739729 2.76345433 10.0603639 0.375 13 C-3.11581787 14.46981805 -5.39148956 13.98413921 -9 13 C-11 11.375 -11 11.375 -12 9 C-11.93439072 5.260271 -11.76345433 2.9396361 -9.375 0 C-5.88418213 -1.46981805 -3.60851044 -0.98413921 0 0 Z M-8.8125 2.1875 C-10.42525784 4.64907776 -10.4334014 6.11065736 -10 9 C-8.91666667 10.91666667 -8.91666667 10.91666667 -7 12 C-4.11065736 12.4334014 -2.64907776 12.42525784 -0.1875 10.8125 C1.42525784 8.35092224 1.4334014 6.88934264 1 4 C-0.08333333 2.08333333 -0.08333333 2.08333333 -2 1 C-4.88934264 0.5665986 -6.35092224 0.57474216 -8.8125 2.1875 Z " fill="#292F37" transform="translate(404,94)"/>
<path d="M0 0 C2 1.625 2 1.625 3 4 C2.93439072 7.739729 2.76345433 10.0603639 0.375 13 C-3.11581787 14.46981805 -5.39148956 13.98413921 -9 13 C-11 11.375 -11 11.375 -12 9 C-11.93439072 5.260271 -11.76345433 2.9396361 -9.375 0 C-5.88418213 -1.46981805 -3.60851044 -0.98413921 0 0 Z M-8.8125 2.1875 C-10.42525784 4.64907776 -10.4334014 6.11065736 -10 9 C-8.91666667 10.91666667 -8.91666667 10.91666667 -7 12 C-4.11065736 12.4334014 -2.64907776 12.42525784 -0.1875 10.8125 C1.42525784 8.35092224 1.4334014 6.88934264 1 4 C-0.08333333 2.08333333 -0.08333333 2.08333333 -2 1 C-4.88934264 0.5665986 -6.35092224 0.57474216 -8.8125 2.1875 Z " fill="#292F37" transform="translate(304,94)"/>
<path d="M0 0 C2 1.625 2 1.625 3 4 C2.93439072 7.739729 2.76345433 10.0603639 0.375 13 C-3.11581787 14.46981805 -5.39148956 13.98413921 -9 13 C-11 11.375 -11 11.375 -12 9 C-11.93439072 5.260271 -11.76345433 2.9396361 -9.375 0 C-5.88418213 -1.46981805 -3.60851044 -0.98413921 0 0 Z M-8.8125 2.1875 C-10.42525784 4.64907776 -10.4334014 6.11065736 -10 9 C-8.91666667 10.91666667 -8.91666667 10.91666667 -7 12 C-4.11065736 12.4334014 -2.64907776 12.42525784 -0.1875 10.8125 C1.42525784 8.35092224 1.4334014 6.88934264 1 4 C-0.08333333 2.08333333 -0.08333333 2.08333333 -2 1 C-4.88934264 0.5665986 -6.35092224 0.57474216 -8.8125 2.1875 Z " fill="#292F37" transform="translate(204,94)"/>
<path d="M0 0 C2 1.625 2 1.625 3 4 C2.93439072 7.739729 2.76345433 10.0603639 0.375 13 C-3.11581787 14.46981805 -5.39148956 13.98413921 -9 13 C-11 11.375 -11 11.375 -12 9 C-11.93439072 5.260271 -11.76345433 2.9396361 -9.375 0 C-5.88418213 -1.46981805 -3.60851044 -0.98413921 0 0 Z M-8.8125 2.1875 C-10.42525784 4.64907776 -10.4334014 6.11065736 -10 9 C-8.91666667 10.91666667 -8.91666667 10.91666667 -7 12 C-4.11065736 12.4334014 -2.64907776 12.42525784 -0.1875 10.8125 C1.42525784 8.35092224 1.4334014 6.88934264 1 4 C-0.08333333 2.08333333 -0.08333333 2.08333333 -2 1 C-4.88934264 0.5665986 -6.35092224 0.57474216 -8.8125 2.1875 Z " fill="#292F37" transform="translate(104,94)"/>
<path d="M0 0 C2 1.625 2 1.625 3 4 C2.93439072 7.739729 2.76345433 10.0603639 0.375 13 C-3.11581787 14.46981805 -5.39148956 13.98413921 -9 13 C-11 11.375 -11 11.375 -12 9 C-11.93439072 5.260271 -11.76345433 2.9396361 -9.375 0 C-5.88418213 -1.46981805 -3.60851044 -0.98413921 0 0 Z M-8.8125 2.1875 C-10.42525784 4.64907776 -10.4334014 6.11065736 -10 9 C-8.91666667 10.91666667 -8.91666667 10.91666667 -7 12 C-4.11065736 12.4334014 -2.64907776 12.42525784 -0.1875 10.8125 C1.42525784 8.35092224 1.4334014 6.88934264 1 4 C-0.08333333 2.08333333 -0.08333333 2.08333333 -2 1 C-4.88934264 0.5665986 -6.35092224 0.57474216 -8.8125 2.1875 Z " fill="#292F37" transform="translate(454,44)"/>
<path d="M0 0 C2 1.625 2 1.625 3 4 C2.93439072 7.739729 2.76345433 10.0603639 0.375 13 C-3.11581787 14.46981805 -5.39148956 13.98413921 -9 13 C-11 11.375 -11 11.375 -12 9 C-11.93439072 5.260271 -11.76345433 2.9396361 -9.375 0 C-5.88418213 -1.46981805 -3.60851044 -0.98413921 0 0 Z M-8.8125 2.1875 C-10.42525784 4.64907776 -10.4334014 6.11065736 -10 9 C-8.91666667 10.91666667 -8.91666667 10.91666667 -7 12 C-4.11065736 12.4334014 -2.64907776 12.42525784 -0.1875 10.8125 C1.42525784 8.35092224 1.4334014 6.88934264 1 4 C-0.08333333 2.08333333 -0.08333333 2.08333333 -2 1 C-4.88934264 0.5665986 -6.35092224 0.57474216 -8.8125 2.1875 Z " fill="#292F37" transform="translate(354,44)"/>
<path d="M0 0 C2 1.625 2 1.625 3 4 C2.93439072 7.739729 2.76345433 10.0603639 0.375 13 C-3.11581787 14.46981805 -5.39148956 13.98413921 -9 13 C-11 11.375 -11 11.375 -12 9 C-11.93439072 5.260271 -11.76345433 2.9396361 -9.375 0 C-5.88418213 -1.46981805 -3.60851044 -0.98413921 0 0 Z M-8.8125 2.1875 C-10.42525784 4.64907776 -10.4334014 6.11065736 -10 9 C-8.91666667 10.91666667 -8.91666667 10.91666667 -7 12 C-4.11065736 12.4334014 -2.64907776 12.42525784 -0.1875 10.8125 C1.42525784 8.35092224 1.4334014 6.88934264 1 4 C-0.08333333 2.08333333 -0.08333333 2.08333333 -2 1 C-4.88934264 0.5665986 -6.35092224 0.57474216 -8.8125 2.1875 Z " fill="#292F37" transform="translate(254,44)"/>
<path d="M0 0 C2 1.625 2 1.625 3 4 C2.93439072 7.739729 2.76345433 10.0603639 0.375 13 C-3.11581787 14.46981805 -5.39148956 13.98413921 -9 13 C-11 11.375 -11 11.375 -12 9 C-11.93439072 5.260271 -11.76345433 2.9396361 -9.375 0 C-5.88418213 -1.46981805 -3.60851044 -0.98413921 0 0 Z M-8.8125 2.1875 C-10.42525784 4.64907776 -10.4334014 6.11065736 -10 9 C-8.91666667 10.91666667 -8.91666667 10.91666667 -7 12 C-4.11065736 12.4334014 -2.64907776 12.42525784 -0.1875 10.8125 C1.42525784 8.35092224 1.4334014 6.88934264 1 4 C-0.08333333 2.08333333 -0.08333333 2.08333333 -2 1 C-4.88934264 0.5665986 -6.35092224 0.57474216 -8.8125 2.1875 Z " fill="#292F37" transform="translate(154,44)"/>
<path d="M0 0 C2 1.625 2 1.625 3 4 C2.93439072 7.739729 2.76345433 10.0603639 0.375 13 C-3.11581787 14.46981805 -5.39148956 13.98413921 -9 13 C-11 11.375 -11 11.375 -12 9 C-11.93439072 5.260271 -11.76345433 2.9396361 -9.375 0 C-5.88418213 -1.46981805 -3.60851044 -0.98413921 0 0 Z M-8.8125 2.1875 C-10.42525784 4.64907776 -10.4334014 6.11065736 -10 9 C-8.91666667 10.91666667 -8.91666667 10.91666667 -7 12 C-4.11065736 12.4334014 -2.64907776 12.42525784 -0.1875 10.8125 C1.42525784 8.35092224 1.4334014 6.88934264 1 4 C-0.08333333 2.08333333 -0.08333333 2.08333333 -2 1 C-4.88934264 0.5665986 -6.35092224 0.57474216 -8.8125 2.1875 Z " fill="#292F37" transform="translate(54,44)"/>
<path d="M0 0 C2.64 0 5.28 0 8 0 C8 2.64 8 5.28 8 8 C4.89347355 7.6641593 3.39585697 7.40950721 1.1875 5.125 C0 3 0 3 0 0 Z " fill="#BBC0BF" transform="translate(492,0)"/>
<path d="M0 0 C0 2.31 0 4.62 0 7 C-2.64 7 -5.28 7 -8 7 C-6.4365884 2.43002763 -5.27390657 0 0 0 Z " fill="#C8CECD" transform="translate(500,493)"/>
<path d="M0 0 C2.31 0 4.62 0 7 0 C6.65930765 3.15140423 6.41923159 4.60781561 4.0625 6.8125 C2 8 2 8 0 8 C0 5.36 0 2.72 0 0 Z " fill="#C8CECD" transform="translate(0,0)"/>
<path d="M0 0 C0 0.66 0 1.32 0 2 C-1.2375 2.6496875 -1.2375 2.6496875 -2.5 3.3125 C-5.2340584 4.75259226 -5.2340584 4.75259226 -5.625 7.5 C-5.2340584 10.24740774 -5.2340584 10.24740774 -2.5 11.6875 C-1.2625 12.3371875 -1.2625 12.3371875 0 13 C0 13.66 0 14.32 0 15 C-2.94563014 14.6815535 -4.61076606 14.33733608 -6.875 12.375 C-8.52568093 8.89022914 -7.9991864 6.66368347 -7 3 C-4.5091717 0.42614409 -3.61594767 0 0 0 Z " fill="#2D343C" transform="translate(500,393)"/>
<path d="M0 0 C0 0.66 0 1.32 0 2 C-1.2375 2.6496875 -1.2375 2.6496875 -2.5 3.3125 C-5.2340584 4.75259226 -5.2340584 4.75259226 -5.625 7.5 C-5.2340584 10.24740774 -5.2340584 10.24740774 -2.5 11.6875 C-1.2625 12.3371875 -1.2625 12.3371875 0 13 C0 13.66 0 14.32 0 15 C-2.94563014 14.6815535 -4.61076606 14.33733608 -6.875 12.375 C-8.52568093 8.89022914 -7.9991864 6.66368347 -7 3 C-4.5091717 0.42614409 -3.61594767 0 0 0 Z " fill="#2D343C" transform="translate(500,293)"/>
<path d="M0 0 C0 0.66 0 1.32 0 2 C-1.2375 2.6496875 -1.2375 2.6496875 -2.5 3.3125 C-5.2340584 4.75259226 -5.2340584 4.75259226 -5.625 7.5 C-5.2340584 10.24740774 -5.2340584 10.24740774 -2.5 11.6875 C-1.2625 12.3371875 -1.2625 12.3371875 0 13 C0 13.66 0 14.32 0 15 C-2.94563014 14.6815535 -4.61076606 14.33733608 -6.875 12.375 C-8.52568093 8.89022914 -7.9991864 6.66368347 -7 3 C-4.5091717 0.42614409 -3.61594767 0 0 0 Z " fill="#2D343C" transform="translate(500,193)"/>
<path d="M0 0 C0 0.66 0 1.32 0 2 C-1.2375 2.6496875 -1.2375 2.6496875 -2.5 3.3125 C-5.2340584 4.75259226 -5.2340584 4.75259226 -5.625 7.5 C-5.2340584 10.24740774 -5.2340584 10.24740774 -2.5 11.6875 C-1.2625 12.3371875 -1.2625 12.3371875 0 13 C0 13.66 0 14.32 0 15 C-2.94563014 14.6815535 -4.61076606 14.33733608 -6.875 12.375 C-8.52568093 8.89022914 -7.9991864 6.66368347 -7 3 C-4.5091717 0.42614409 -3.61594767 0 0 0 Z " fill="#2D343C" transform="translate(500,93)"/>
<path d="M0 0 C0.66 0 1.32 0 2 0 C2.6496875 1.2375 2.6496875 1.2375 3.3125 2.5 C4.75259226 5.2340584 4.75259226 5.2340584 7.5 5.625 C10.24740774 5.2340584 10.24740774 5.2340584 11.6875 2.5 C12.3371875 1.2625 12.3371875 1.2625 13 0 C13.66 0 14.32 0 15 0 C14.6815535 2.94563014 14.33733608 4.61076606 12.375 6.875 C8.89022914 8.52568093 6.66368347 7.9991864 3 7 C1.0625 5.125 1.0625 5.125 0 3 C0 2.01 0 1.02 0 0 Z " fill="#2A3139" transform="translate(392,0)"/>
<path d="M0 0 C0.66 0 1.32 0 2 0 C2.6496875 1.2375 2.6496875 1.2375 3.3125 2.5 C4.75259226 5.2340584 4.75259226 5.2340584 7.5 5.625 C10.24740774 5.2340584 10.24740774 5.2340584 11.6875 2.5 C12.3371875 1.2625 12.3371875 1.2625 13 0 C13.66 0 14.32 0 15 0 C14.6815535 2.94563014 14.33733608 4.61076606 12.375 6.875 C8.89022914 8.52568093 6.66368347 7.9991864 3 7 C1.0625 5.125 1.0625 5.125 0 3 C0 2.01 0 1.02 0 0 Z " fill="#2A3139" transform="translate(292,0)"/>
<path d="M0 0 C0.66 0 1.32 0 2 0 C2.6496875 1.2375 2.6496875 1.2375 3.3125 2.5 C4.75259226 5.2340584 4.75259226 5.2340584 7.5 5.625 C10.24740774 5.2340584 10.24740774 5.2340584 11.6875 2.5 C12.3371875 1.2625 12.3371875 1.2625 13 0 C13.66 0 14.32 0 15 0 C14.6815535 2.94563014 14.33733608 4.61076606 12.375 6.875 C8.89022914 8.52568093 6.66368347 7.9991864 3 7 C1.0625 5.125 1.0625 5.125 0 3 C0 2.01 0 1.02 0 0 Z " fill="#2A3139" transform="translate(192,0)"/>
<path d="M0 0 C0.66 0 1.32 0 2 0 C2.6496875 1.2375 2.6496875 1.2375 3.3125 2.5 C4.75259226 5.2340584 4.75259226 5.2340584 7.5 5.625 C10.24740774 5.2340584 10.24740774 5.2340584 11.6875 2.5 C12.3371875 1.2625 12.3371875 1.2625 13 0 C13.66 0 14.32 0 15 0 C14.6815535 2.94563014 14.33733608 4.61076606 12.375 6.875 C8.89022914 8.52568093 6.66368347 7.9991864 3 7 C1.0625 5.125 1.0625 5.125 0 3 C0 2.01 0 1.02 0 0 Z " fill="#2A3139" transform="translate(92,0)"/>
<path d="M0 0 C3.5 0.875 3.5 0.875 5.4375 2.8125 C6.5 4.875 6.5 4.875 6.5 6.875 C5.84 6.875 5.18 6.875 4.5 6.875 C4.066875 6.215 3.63375 5.555 3.1875 4.875 C1.6536469 2.63577144 1.6536469 2.63577144 -1 2.375 C-3.6536469 2.63577144 -3.6536469 2.63577144 -5.1875 4.875 C-5.620625 5.535 -6.05375 6.195 -6.5 6.875 C-7.16 6.875 -7.82 6.875 -8.5 6.875 C-6.81895867 1.96118689 -5.60316234 -0.20011294 0 0 Z " fill="#292F37" transform="translate(400.5,493.125)"/>
<path d="M0 0 C3.5 0.875 3.5 0.875 5.4375 2.8125 C6.5 4.875 6.5 4.875 6.5 6.875 C5.84 6.875 5.18 6.875 4.5 6.875 C4.066875 6.215 3.63375 5.555 3.1875 4.875 C1.6536469 2.63577144 1.6536469 2.63577144 -1 2.375 C-3.6536469 2.63577144 -3.6536469 2.63577144 -5.1875 4.875 C-5.620625 5.535 -6.05375 6.195 -6.5 6.875 C-7.16 6.875 -7.82 6.875 -8.5 6.875 C-6.81895867 1.96118689 -5.60316234 -0.20011294 0 0 Z " fill="#292F37" transform="translate(300.5,493.125)"/>
<path d="M0 0 C3.5 0.875 3.5 0.875 5.4375 2.8125 C6.5 4.875 6.5 4.875 6.5 6.875 C5.84 6.875 5.18 6.875 4.5 6.875 C4.066875 6.215 3.63375 5.555 3.1875 4.875 C1.6536469 2.63577144 1.6536469 2.63577144 -1 2.375 C-3.6536469 2.63577144 -3.6536469 2.63577144 -5.1875 4.875 C-5.620625 5.535 -6.05375 6.195 -6.5 6.875 C-7.16 6.875 -7.82 6.875 -8.5 6.875 C-6.81895867 1.96118689 -5.60316234 -0.20011294 0 0 Z " fill="#292F37" transform="translate(200.5,493.125)"/>
<path d="M0 0 C3.5 0.875 3.5 0.875 5.4375 2.8125 C6.5 4.875 6.5 4.875 6.5 6.875 C5.84 6.875 5.18 6.875 4.5 6.875 C4.066875 6.215 3.63375 5.555 3.1875 4.875 C1.6536469 2.63577144 1.6536469 2.63577144 -1 2.375 C-3.6536469 2.63577144 -3.6536469 2.63577144 -5.1875 4.875 C-5.620625 5.535 -6.05375 6.195 -6.5 6.875 C-7.16 6.875 -7.82 6.875 -8.5 6.875 C-6.81895867 1.96118689 -5.60316234 -0.20011294 0 0 Z " fill="#292F37" transform="translate(100.5,493.125)"/>
<path d="M0 0 C3.65316671 1.24976756 4.78065836 1.67098753 7 5 C6.77777778 11.22222222 6.77777778 11.22222222 4.0625 13.9375 C2 15 2 15 0 15 C0 14.34 0 13.68 0 13 C0.66 12.566875 1.32 12.13375 2 11.6875 C4.23922856 10.1536469 4.23922856 10.1536469 4.5 7.5 C4.23922856 4.8463531 4.23922856 4.8463531 2 3.3125 C1.34 2.879375 0.68 2.44625 0 2 C0 1.34 0 0.68 0 0 Z " fill="#2A3038" transform="translate(0,393)"/>
<path d="M0 0 C3.65316671 1.24976756 4.78065836 1.67098753 7 5 C6.77777778 11.22222222 6.77777778 11.22222222 4.0625 13.9375 C2 15 2 15 0 15 C0 14.34 0 13.68 0 13 C0.66 12.566875 1.32 12.13375 2 11.6875 C4.23922856 10.1536469 4.23922856 10.1536469 4.5 7.5 C4.23922856 4.8463531 4.23922856 4.8463531 2 3.3125 C1.34 2.879375 0.68 2.44625 0 2 C0 1.34 0 0.68 0 0 Z " fill="#2A3038" transform="translate(0,293)"/>
<path d="M0 0 C3.65316671 1.24976756 4.78065836 1.67098753 7 5 C6.77777778 11.22222222 6.77777778 11.22222222 4.0625 13.9375 C2 15 2 15 0 15 C0 14.34 0 13.68 0 13 C0.66 12.566875 1.32 12.13375 2 11.6875 C4.23922856 10.1536469 4.23922856 10.1536469 4.5 7.5 C4.23922856 4.8463531 4.23922856 4.8463531 2 3.3125 C1.34 2.879375 0.68 2.44625 0 2 C0 1.34 0 0.68 0 0 Z " fill="#2A3038" transform="translate(0,193)"/>
<path d="M0 0 C3.65316671 1.24976756 4.78065836 1.67098753 7 5 C6.77777778 11.22222222 6.77777778 11.22222222 4.0625 13.9375 C2 15 2 15 0 15 C0 14.34 0 13.68 0 13 C0.66 12.566875 1.32 12.13375 2 11.6875 C4.23922856 10.1536469 4.23922856 10.1536469 4.5 7.5 C4.23922856 4.8463531 4.23922856 4.8463531 2 3.3125 C1.34 2.879375 0.68 2.44625 0 2 C0 1.34 0 0.68 0 0 Z " fill="#2A3038" transform="translate(0,93)"/>
<path d="M0 0 C2.375 0.6875 2.375 0.6875 5 2 C6.3125 4.625 6.3125 4.625 7 7 C4.69 7 2.38 7 0 7 C0 4.69 0 2.38 0 0 Z " fill="#D6DCDB" transform="translate(0,493)"/>
<path d="M0 0 C0.556875 0.350625 1.11375 0.70125 1.6875 1.0625 C4.53886783 2.21845993 6.08517222 1.80967438 9 1 C8.67 3.31 8.34 5.62 8 8 C5.69 8.33 3.38 8.66 1 9 C1.20625 8.2575 1.4125 7.515 1.625 6.75 C2.04408751 3.67669159 1.61949011 2.57213134 0 0 Z " fill="#3D434A" transform="translate(393,445)"/>
<path d="M0 0 C0.556875 0.350625 1.11375 0.70125 1.6875 1.0625 C4.53886783 2.21845993 6.08517222 1.80967438 9 1 C8.67 3.31 8.34 5.62 8 8 C5.69 8.33 3.38 8.66 1 9 C1.20625 8.2575 1.4125 7.515 1.625 6.75 C2.04408751 3.67669159 1.61949011 2.57213134 0 0 Z " fill="#3D434A" transform="translate(294,445)"/>
<path d="M0 0 C0.556875 0.350625 1.11375 0.70125 1.6875 1.0625 C4.53886783 2.21845993 6.08517222 1.80967438 9 1 C8.67 3.31 8.34 5.62 8 8 C5.69 8.33 3.38 8.66 1 9 C1.20625 8.2575 1.4125 7.515 1.625 6.75 C2.04408751 3.67669159 1.61949011 2.57213134 0 0 Z " fill="#3D434A" transform="translate(195,445)"/>
<path d="M0 0 C0.556875 0.350625 1.11375 0.70125 1.6875 1.0625 C4.53886783 2.21845993 6.08517222 1.80967438 9 1 C8.67 3.31 8.34 5.62 8 8 C5.69 8.33 3.38 8.66 1 9 C1.20625 8.2575 1.4125 7.515 1.625 6.75 C2.04408751 3.67669159 1.61949011 2.57213134 0 0 Z " fill="#3D434A" transform="translate(94,445)"/>
<path d="M0 0 C0.556875 0.350625 1.11375 0.70125 1.6875 1.0625 C4.53886783 2.21845993 6.08517222 1.80967438 9 1 C8.67 3.31 8.34 5.62 8 8 C5.69 8.33 3.38 8.66 1 9 C1.20625 8.2575 1.4125 7.515 1.625 6.75 C2.04408751 3.67669159 1.61949011 2.57213134 0 0 Z " fill="#3D434A" transform="translate(444,395)"/>
<path d="M0 0 C0.556875 0.350625 1.11375 0.70125 1.6875 1.0625 C4.53886783 2.21845993 6.08517222 1.80967438 9 1 C8.67 3.31 8.34 5.62 8 8 C5.69 8.33 3.38 8.66 1 9 C1.20625 8.2575 1.4125 7.515 1.625 6.75 C2.04408751 3.67669159 1.61949011 2.57213134 0 0 Z " fill="#3D434A" transform="translate(344,395)"/>
<path d="M0 0 C0.556875 0.350625 1.11375 0.70125 1.6875 1.0625 C4.53886783 2.21845993 6.08517222 1.80967438 9 1 C8.67 3.31 8.34 5.62 8 8 C5.69 8.33 3.38 8.66 1 9 C1.20625 8.2575 1.4125 7.515 1.625 6.75 C2.04408751 3.67669159 1.61949011 2.57213134 0 0 Z " fill="#3D434A" transform="translate(244,395)"/>
<path d="M0 0 C0.556875 0.350625 1.11375 0.70125 1.6875 1.0625 C4.53886783 2.21845993 6.08517222 1.80967438 9 1 C8.67 3.31 8.34 5.62 8 8 C5.69 8.33 3.38 8.66 1 9 C1.20625 8.2575 1.4125 7.515 1.625 6.75 C2.04408751 3.67669159 1.61949011 2.57213134 0 0 Z " fill="#3D434A" transform="translate(144,395)"/>
<path d="M0 0 C0.556875 0.350625 1.11375 0.70125 1.6875 1.0625 C4.53886783 2.21845993 6.08517222 1.80967438 9 1 C8.67 3.31 8.34 5.62 8 8 C5.69 8.33 3.38 8.66 1 9 C1.20625 8.2575 1.4125 7.515 1.625 6.75 C2.04408751 3.67669159 1.61949011 2.57213134 0 0 Z " fill="#3D434A" transform="translate(44,395)"/>
<path d="M0 0 C0.556875 0.350625 1.11375 0.70125 1.6875 1.0625 C4.53886783 2.21845993 6.08517222 1.80967438 9 1 C8.67 3.31 8.34 5.62 8 8 C5.69 8.33 3.38 8.66 1 9 C1.20625 8.2575 1.4125 7.515 1.625 6.75 C2.04408751 3.67669159 1.61949011 2.57213134 0 0 Z " fill="#3D434A" transform="translate(393,345)"/>
<path d="M0 0 C0.556875 0.350625 1.11375 0.70125 1.6875 1.0625 C4.53886783 2.21845993 6.08517222 1.80967438 9 1 C8.67 3.31 8.34 5.62 8 8 C5.69 8.33 3.38 8.66 1 9 C1.20625 8.2575 1.4125 7.515 1.625 6.75 C2.04408751 3.67669159 1.61949011 2.57213134 0 0 Z " fill="#3D434A" transform="translate(294,345)"/>
<path d="M0 0 C0.556875 0.350625 1.11375 0.70125 1.6875 1.0625 C4.53886783 2.21845993 6.08517222 1.80967438 9 1 C8.67 3.31 8.34 5.62 8 8 C5.69 8.33 3.38 8.66 1 9 C1.20625 8.2575 1.4125 7.515 1.625 6.75 C2.04408751 3.67669159 1.61949011 2.57213134 0 0 Z " fill="#3D434A" transform="translate(195,345)"/>
<path d="M0 0 C0.556875 0.350625 1.11375 0.70125 1.6875 1.0625 C4.53886783 2.21845993 6.08517222 1.80967438 9 1 C8.67 3.31 8.34 5.62 8 8 C5.69 8.33 3.38 8.66 1 9 C1.20625 8.2575 1.4125 7.515 1.625 6.75 C2.04408751 3.67669159 1.61949011 2.57213134 0 0 Z " fill="#3D434A" transform="translate(94,345)"/>
<path d="M0 0 C0.556875 0.350625 1.11375 0.70125 1.6875 1.0625 C4.53886783 2.21845993 6.08517222 1.80967438 9 1 C8.67 3.31 8.34 5.62 8 8 C5.69 8.33 3.38 8.66 1 9 C1.20625 8.2575 1.4125 7.515 1.625 6.75 C2.04408751 3.67669159 1.61949011 2.57213134 0 0 Z " fill="#3D434A" transform="translate(444,295)"/>
<path d="M0 0 C0.556875 0.350625 1.11375 0.70125 1.6875 1.0625 C4.53886783 2.21845993 6.08517222 1.80967438 9 1 C8.67 3.31 8.34 5.62 8 8 C5.69 8.33 3.38 8.66 1 9 C1.20625 8.2575 1.4125 7.515 1.625 6.75 C2.04408751 3.67669159 1.61949011 2.57213134 0 0 Z " fill="#3D434A" transform="translate(344,295)"/>
<path d="M0 0 C0.556875 0.350625 1.11375 0.70125 1.6875 1.0625 C4.53886783 2.21845993 6.08517222 1.80967438 9 1 C8.67 3.31 8.34 5.62 8 8 C5.69 8.33 3.38 8.66 1 9 C1.20625 8.2575 1.4125 7.515 1.625 6.75 C2.04408751 3.67669159 1.61949011 2.57213134 0 0 Z " fill="#3D434A" transform="translate(244,295)"/>
<path d="M0 0 C0.556875 0.350625 1.11375 0.70125 1.6875 1.0625 C4.53886783 2.21845993 6.08517222 1.80967438 9 1 C8.67 3.31 8.34 5.62 8 8 C5.69 8.33 3.38 8.66 1 9 C1.20625 8.2575 1.4125 7.515 1.625 6.75 C2.04408751 3.67669159 1.61949011 2.57213134 0 0 Z " fill="#3D434A" transform="translate(144,295)"/>
<path d="M0 0 C0.556875 0.350625 1.11375 0.70125 1.6875 1.0625 C4.53886783 2.21845993 6.08517222 1.80967438 9 1 C8.67 3.31 8.34 5.62 8 8 C5.69 8.33 3.38 8.66 1 9 C1.20625 8.2575 1.4125 7.515 1.625 6.75 C2.04408751 3.67669159 1.61949011 2.57213134 0 0 Z " fill="#3D434A" transform="translate(44,295)"/>
<path d="M0 0 C0.556875 0.350625 1.11375 0.70125 1.6875 1.0625 C4.53886783 2.21845993 6.08517222 1.80967438 9 1 C8.67 3.31 8.34 5.62 8 8 C5.69 8.33 3.38 8.66 1 9 C1.20625 8.2575 1.4125 7.515 1.625 6.75 C2.04408751 3.67669159 1.61949011 2.57213134 0 0 Z " fill="#3D434A" transform="translate(393,245)"/>
<path d="M0 0 C0.556875 0.350625 1.11375 0.70125 1.6875 1.0625 C4.53886783 2.21845993 6.08517222 1.80967438 9 1 C8.67 3.31 8.34 5.62 8 8 C5.69 8.33 3.38 8.66 1 9 C1.20625 8.2575 1.4125 7.515 1.625 6.75 C2.04408751 3.67669159 1.61949011 2.57213134 0 0 Z " fill="#3D434A" transform="translate(294,245)"/>
<path d="M0 0 C0.556875 0.350625 1.11375 0.70125 1.6875 1.0625 C4.53886783 2.21845993 6.08517222 1.80967438 9 1 C8.67 3.31 8.34 5.62 8 8 C5.69 8.33 3.38 8.66 1 9 C1.20625 8.2575 1.4125 7.515 1.625 6.75 C2.04408751 3.67669159 1.61949011 2.57213134 0 0 Z " fill="#3D434A" transform="translate(195,245)"/>
<path d="M0 0 C0.556875 0.350625 1.11375 0.70125 1.6875 1.0625 C4.53886783 2.21845993 6.08517222 1.80967438 9 1 C8.67 3.31 8.34 5.62 8 8 C5.69 8.33 3.38 8.66 1 9 C1.20625 8.2575 1.4125 7.515 1.625 6.75 C2.04408751 3.67669159 1.61949011 2.57213134 0 0 Z " fill="#3D434A" transform="translate(94,245)"/>
<path d="M0 0 C0.556875 0.350625 1.11375 0.70125 1.6875 1.0625 C4.53886783 2.21845993 6.08517222 1.80967438 9 1 C8.67 3.31 8.34 5.62 8 8 C5.69 8.33 3.38 8.66 1 9 C1.20625 8.2575 1.4125 7.515 1.625 6.75 C2.04408751 3.67669159 1.61949011 2.57213134 0 0 Z " fill="#3D434A" transform="translate(444,195)"/>
<path d="M0 0 C0.556875 0.350625 1.11375 0.70125 1.6875 1.0625 C4.53886783 2.21845993 6.08517222 1.80967438 9 1 C8.67 3.31 8.34 5.62 8 8 C5.69 8.33 3.38 8.66 1 9 C1.20625 8.2575 1.4125 7.515 1.625 6.75 C2.04408751 3.67669159 1.61949011 2.57213134 0 0 Z " fill="#3D434A" transform="translate(344,195)"/>
<path d="M0 0 C0.556875 0.350625 1.11375 0.70125 1.6875 1.0625 C4.53886783 2.21845993 6.08517222 1.80967438 9 1 C8.67 3.31 8.34 5.62 8 8 C5.69 8.33 3.38 8.66 1 9 C1.20625 8.2575 1.4125 7.515 1.625 6.75 C2.04408751 3.67669159 1.61949011 2.57213134 0 0 Z " fill="#3D434A" transform="translate(244,195)"/>
<path d="M0 0 C0.556875 0.350625 1.11375 0.70125 1.6875 1.0625 C4.53886783 2.21845993 6.08517222 1.80967438 9 1 C8.67 3.31 8.34 5.62 8 8 C5.69 8.33 3.38 8.66 1 9 C1.20625 8.2575 1.4125 7.515 1.625 6.75 C2.04408751 3.67669159 1.61949011 2.57213134 0 0 Z " fill="#3D434A" transform="translate(144,195)"/>
<path d="M0 0 C0.556875 0.350625 1.11375 0.70125 1.6875 1.0625 C4.53886783 2.21845993 6.08517222 1.80967438 9 1 C8.67 3.31 8.34 5.62 8 8 C5.69 8.33 3.38 8.66 1 9 C1.20625 8.2575 1.4125 7.515 1.625 6.75 C2.04408751 3.67669159 1.61949011 2.57213134 0 0 Z " fill="#3D434A" transform="translate(44,195)"/>
<path d="M0 0 C0.556875 0.350625 1.11375 0.70125 1.6875 1.0625 C4.53886783 2.21845993 6.08517222 1.80967438 9 1 C8.67 3.31 8.34 5.62 8 8 C5.69 8.33 3.38 8.66 1 9 C1.20625 8.2575 1.4125 7.515 1.625 6.75 C2.04408751 3.67669159 1.61949011 2.57213134 0 0 Z " fill="#3D434A" transform="translate(393,145)"/>
<path d="M0 0 C0.556875 0.350625 1.11375 0.70125 1.6875 1.0625 C4.53886783 2.21845993 6.08517222 1.80967438 9 1 C8.67 3.31 8.34 5.62 8 8 C5.69 8.33 3.38 8.66 1 9 C1.20625 8.2575 1.4125 7.515 1.625 6.75 C2.04408751 3.67669159 1.61949011 2.57213134 0 0 Z " fill="#3D434A" transform="translate(294,145)"/>
<path d="M0 0 C0.556875 0.350625 1.11375 0.70125 1.6875 1.0625 C4.53886783 2.21845993 6.08517222 1.80967438 9 1 C8.67 3.31 8.34 5.62 8 8 C5.69 8.33 3.38 8.66 1 9 C1.20625 8.2575 1.4125 7.515 1.625 6.75 C2.04408751 3.67669159 1.61949011 2.57213134 0 0 Z " fill="#3D434A" transform="translate(195,145)"/>
<path d="M0 0 C0.556875 0.350625 1.11375 0.70125 1.6875 1.0625 C4.53886783 2.21845993 6.08517222 1.80967438 9 1 C8.67 3.31 8.34 5.62 8 8 C5.69 8.33 3.38 8.66 1 9 C1.20625 8.2575 1.4125 7.515 1.625 6.75 C2.04408751 3.67669159 1.61949011 2.57213134 0 0 Z " fill="#3D434A" transform="translate(94,145)"/>
<path d="M0 0 C0.556875 0.350625 1.11375 0.70125 1.6875 1.0625 C4.53886783 2.21845993 6.08517222 1.80967438 9 1 C8.67 3.31 8.34 5.62 8 8 C5.69 8.33 3.38 8.66 1 9 C1.20625 8.2575 1.4125 7.515 1.625 6.75 C2.04408751 3.67669159 1.61949011 2.57213134 0 0 Z " fill="#3D434A" transform="translate(444,95)"/>
<path d="M0 0 C0.556875 0.350625 1.11375 0.70125 1.6875 1.0625 C4.53886783 2.21845993 6.08517222 1.80967438 9 1 C8.67 3.31 8.34 5.62 8 8 C5.69 8.33 3.38 8.66 1 9 C1.20625 8.2575 1.4125 7.515 1.625 6.75 C2.04408751 3.67669159 1.61949011 2.57213134 0 0 Z " fill="#3D434A" transform="translate(344,95)"/>
<path d="M0 0 C0.556875 0.350625 1.11375 0.70125 1.6875 1.0625 C4.53886783 2.21845993 6.08517222 1.80967438 9 1 C8.67 3.31 8.34 5.62 8 8 C5.69 8.33 3.38 8.66 1 9 C1.20625 8.2575 1.4125 7.515 1.625 6.75 C2.04408751 3.67669159 1.61949011 2.57213134 0 0 Z " fill="#3D434A" transform="translate(244,95)"/>
<path d="M0 0 C0.556875 0.350625 1.11375 0.70125 1.6875 1.0625 C4.53886783 2.21845993 6.08517222 1.80967438 9 1 C8.67 3.31 8.34 5.62 8 8 C5.69 8.33 3.38 8.66 1 9 C1.20625 8.2575 1.4125 7.515 1.625 6.75 C2.04408751 3.67669159 1.61949011 2.57213134 0 0 Z " fill="#3D434A" transform="translate(144,95)"/>
<path d="M0 0 C0.556875 0.350625 1.11375 0.70125 1.6875 1.0625 C4.53886783 2.21845993 6.08517222 1.80967438 9 1 C8.67 3.31 8.34 5.62 8 8 C5.69 8.33 3.38 8.66 1 9 C1.20625 8.2575 1.4125 7.515 1.625 6.75 C2.04408751 3.67669159 1.61949011 2.57213134 0 0 Z " fill="#3D434A" transform="translate(44,95)"/>
<path d="M0 0 C0.556875 0.350625 1.11375 0.70125 1.6875 1.0625 C4.53886783 2.21845993 6.08517222 1.80967438 9 1 C8.67 3.31 8.34 5.62 8 8 C5.69 8.33 3.38 8.66 1 9 C1.20625 8.2575 1.4125 7.515 1.625 6.75 C2.04408751 3.67669159 1.61949011 2.57213134 0 0 Z " fill="#3D434A" transform="translate(393,45)"/>
<path d="M0 0 C0.556875 0.350625 1.11375 0.70125 1.6875 1.0625 C4.53886783 2.21845993 6.08517222 1.80967438 9 1 C8.67 3.31 8.34 5.62 8 8 C5.69 8.33 3.38 8.66 1 9 C1.20625 8.2575 1.4125 7.515 1.625 6.75 C2.04408751 3.67669159 1.61949011 2.57213134 0 0 Z " fill="#3D434A" transform="translate(294,45)"/>
<path d="M0 0 C0.556875 0.350625 1.11375 0.70125 1.6875 1.0625 C4.53886783 2.21845993 6.08517222 1.80967438 9 1 C8.67 3.31 8.34 5.62 8 8 C5.69 8.33 3.38 8.66 1 9 C1.20625 8.2575 1.4125 7.515 1.625 6.75 C2.04408751 3.67669159 1.61949011 2.57213134 0 0 Z " fill="#3D434A" transform="translate(195,45)"/>
<path d="M0 0 C0.556875 0.350625 1.11375 0.70125 1.6875 1.0625 C4.53886783 2.21845993 6.08517222 1.80967438 9 1 C8.67 3.31 8.34 5.62 8 8 C5.69 8.33 3.38 8.66 1 9 C1.20625 8.2575 1.4125 7.515 1.625 6.75 C2.04408751 3.67669159 1.61949011 2.57213134 0 0 Z " fill="#3D434A" transform="translate(94,45)"/>
<path d="M0 0 C0.66 0 1.32 0 2 0 C2.474375 0.804375 2.94875 1.60875 3.4375 2.4375 C4.79983672 5.2918076 4.79983672 5.2918076 8 6 C8 6.66 8 7.32 8 8 C4.89347355 7.6641593 3.39585697 7.40950721 1.1875 5.125 C0 3 0 3 0 0 Z " fill="#2A3139" transform="translate(492,0)"/>
<path d="M0 0 C0 0.66 0 1.32 0 2 C-1.65532623 3.01866229 -3.32260138 4.01810813 -5 5 C-5.33 5.66 -5.66 6.32 -6 7 C-6.66 7 -7.32 7 -8 7 C-6.4365884 2.43002763 -5.27390657 0 0 0 Z " fill="#293037" transform="translate(500,493)"/>
<path d="M0 0 C0.556875 0.350625 1.11375 0.70125 1.6875 1.0625 C4.53886783 2.21845993 6.08517222 1.80967438 9 1 C8.34 2.32 7.68 3.64 7 5 C4.625 4.75 4.625 4.75 2 4 C0.6875 1.9375 0.6875 1.9375 0 0 Z " fill="#464D53" transform="translate(444,495)"/>
<path d="M0 0 C0.556875 0.350625 1.11375 0.70125 1.6875 1.0625 C4.53886783 2.21845993 6.08517222 1.80967438 9 1 C8.34 2.32 7.68 3.64 7 5 C4.625 4.75 4.625 4.75 2 4 C0.6875 1.9375 0.6875 1.9375 0 0 Z " fill="#464D53" transform="translate(344,495)"/>
<path d="M0 0 C0.556875 0.350625 1.11375 0.70125 1.6875 1.0625 C4.53886783 2.21845993 6.08517222 1.80967438 9 1 C8.34 2.32 7.68 3.64 7 5 C4.625 4.75 4.625 4.75 2 4 C0.6875 1.9375 0.6875 1.9375 0 0 Z " fill="#464D53" transform="translate(244,495)"/>
<path d="M0 0 C0.556875 0.350625 1.11375 0.70125 1.6875 1.0625 C4.53886783 2.21845993 6.08517222 1.80967438 9 1 C8.34 2.32 7.68 3.64 7 5 C4.625 4.75 4.625 4.75 2 4 C0.6875 1.9375 0.6875 1.9375 0 0 Z " fill="#464D53" transform="translate(144,495)"/>
<path d="M0 0 C0.556875 0.350625 1.11375 0.70125 1.6875 1.0625 C4.53886783 2.21845993 6.08517222 1.80967438 9 1 C8.34 2.32 7.68 3.64 7 5 C4.625 4.75 4.625 4.75 2 4 C0.6875 1.9375 0.6875 1.9375 0 0 Z " fill="#464D53" transform="translate(44,495)"/>
<path d="M0 0 C1.9375 0.6875 1.9375 0.6875 4 2 C4.75 4.625 4.75 4.625 5 7 C3.02 7.99 3.02 7.99 1 9 C1.20625 8.2575 1.4125 7.515 1.625 6.75 C2.04408751 3.67669159 1.61949011 2.57213134 0 0 Z " fill="#464D53" transform="translate(495,445)"/>
<path d="M0 0 C1.9375 0.6875 1.9375 0.6875 4 2 C4.75 4.625 4.75 4.625 5 7 C3.02 7.99 3.02 7.99 1 9 C1.20625 8.2575 1.4125 7.515 1.625 6.75 C2.04408751 3.67669159 1.61949011 2.57213134 0 0 Z " fill="#464D53" transform="translate(495,345)"/>
<path d="M0 0 C1.9375 0.6875 1.9375 0.6875 4 2 C4.75 4.625 4.75 4.625 5 7 C3.02 7.99 3.02 7.99 1 9 C1.20625 8.2575 1.4125 7.515 1.625 6.75 C2.04408751 3.67669159 1.61949011 2.57213134 0 0 Z " fill="#464D53" transform="translate(495,245)"/>
<path d="M0 0 C1.9375 0.6875 1.9375 0.6875 4 2 C4.75 4.625 4.75 4.625 5 7 C3.02 7.99 3.02 7.99 1 9 C1.20625 8.2575 1.4125 7.515 1.625 6.75 C2.04408751 3.67669159 1.61949011 2.57213134 0 0 Z " fill="#464D53" transform="translate(495,145)"/>
<path d="M0 0 C1.9375 0.6875 1.9375 0.6875 4 2 C4.75 4.625 4.75 4.625 5 7 C3.02 7.99 3.02 7.99 1 9 C1.20625 8.2575 1.4125 7.515 1.625 6.75 C2.04408751 3.67669159 1.61949011 2.57213134 0 0 Z " fill="#464D53" transform="translate(495,45)"/>
<path d="M0 0 C0.66 0 1.32 0 2 0 C1.65930765 3.15140423 1.41923159 4.60781561 -0.9375 6.8125 C-3 8 -3 8 -5 8 C-5 7.34 -5 6.68 -5 6 C-4.360625 5.525625 -3.72125 5.05125 -3.0625 4.5625 C-0.71627037 3.0908635 -0.71627037 3.0908635 0 0 Z " fill="#2A3138" transform="translate(5,0)"/>
<path d="M0 0 C2.375 0.6875 2.375 0.6875 5 2 C6.3125 4.625 6.3125 4.625 7 7 C5 7 5 7 2.375 4.625 C0 2 0 2 0 0 Z " fill="#30363D" transform="translate(0,493)"/>
<path d="M0 0 C0 0.66 0 1.32 0 2 C-1.64333504 3.03789581 -3.31243867 4.03567924 -5 5 C-5.66 5.66 -6.32 6.32 -7 7 C-6.6875 4.625 -6.6875 4.625 -6 2 C-3 0 -3 0 0 0 Z " fill="#262C34" transform="translate(500,393)"/>
<path d="M0 0 C0 0.66 0 1.32 0 2 C-1.64333504 3.03789581 -3.31243867 4.03567924 -5 5 C-5.66 5.66 -6.32 6.32 -7 7 C-6.6875 4.625 -6.6875 4.625 -6 2 C-3 0 -3 0 0 0 Z " fill="#262C34" transform="translate(500,293)"/>
<path d="M0 0 C0 0.66 0 1.32 0 2 C-1.64333504 3.03789581 -3.31243867 4.03567924 -5 5 C-5.66 5.66 -6.32 6.32 -7 7 C-6.6875 4.625 -6.6875 4.625 -6 2 C-3 0 -3 0 0 0 Z " fill="#262C34" transform="translate(500,193)"/>
<path d="M0 0 C0 0.66 0 1.32 0 2 C-1.64333504 3.03789581 -3.31243867 4.03567924 -5 5 C-5.66 5.66 -6.32 6.32 -7 7 C-6.6875 4.625 -6.6875 4.625 -6 2 C-3 0 -3 0 0 0 Z " fill="#262C34" transform="translate(500,93)"/>
<path d="M0 0 C2.40921705 2.40921705 3.53812156 4.94334509 5 8 C4.01 8 3.02 8 2 8 C-0.1519437 4.77208445 -0.20086443 3.71599191 0 0 Z " fill="#303840" transform="translate(442,448)"/>
<path d="M0 0 C2.40921705 2.40921705 3.53812156 4.94334509 5 8 C4.01 8 3.02 8 2 8 C-0.1519437 4.77208445 -0.20086443 3.71599191 0 0 Z " fill="#303840" transform="translate(342,448)"/>
<path d="M0 0 C2.40921705 2.40921705 3.53812156 4.94334509 5 8 C4.01 8 3.02 8 2 8 C-0.1519437 4.77208445 -0.20086443 3.71599191 0 0 Z " fill="#303840" transform="translate(242,448)"/>
<path d="M0 0 C2.40921705 2.40921705 3.53812156 4.94334509 5 8 C4.01 8 3.02 8 2 8 C-0.1519437 4.77208445 -0.20086443 3.71599191 0 0 Z " fill="#303840" transform="translate(142,448)"/>
<path d="M0 0 C2.40921705 2.40921705 3.53812156 4.94334509 5 8 C4.01 8 3.02 8 2 8 C-0.1519437 4.77208445 -0.20086443 3.71599191 0 0 Z " fill="#303840" transform="translate(42,448)"/>
<path d="M0 0 C2.40921705 2.40921705 3.53812156 4.94334509 5 8 C4.01 8 3.02 8 2 8 C-0.1519437 4.77208445 -0.20086443 3.71599191 0 0 Z " fill="#303840" transform="translate(392,398)"/>
<path d="M0 0 C2.40921705 2.40921705 3.53812156 4.94334509 5 8 C4.01 8 3.02 8 2 8 C-0.1519437 4.77208445 -0.20086443 3.71599191 0 0 Z " fill="#303840" transform="translate(292,398)"/>
<path d="M0 0 C2.40921705 2.40921705 3.53812156 4.94334509 5 8 C4.01 8 3.02 8 2 8 C-0.1519437 4.77208445 -0.20086443 3.71599191 0 0 Z " fill="#303840" transform="translate(192,398)"/>
<path d="M0 0 C2.40921705 2.40921705 3.53812156 4.94334509 5 8 C4.01 8 3.02 8 2 8 C-0.1519437 4.77208445 -0.20086443 3.71599191 0 0 Z " fill="#303840" transform="translate(92,398)"/>
<path d="M0 0 C2.40921705 2.40921705 3.53812156 4.94334509 5 8 C4.01 8 3.02 8 2 8 C-0.1519437 4.77208445 -0.20086443 3.71599191 0 0 Z " fill="#303840" transform="translate(442,348)"/>
<path d="M0 0 C2.40921705 2.40921705 3.53812156 4.94334509 5 8 C4.01 8 3.02 8 2 8 C-0.1519437 4.77208445 -0.20086443 3.71599191 0 0 Z " fill="#303840" transform="translate(342,348)"/>
<path d="M0 0 C2.40921705 2.40921705 3.53812156 4.94334509 5 8 C4.01 8 3.02 8 2 8 C-0.1519437 4.77208445 -0.20086443 3.71599191 0 0 Z " fill="#303840" transform="translate(242,348)"/>
<path d="M0 0 C2.40921705 2.40921705 3.53812156 4.94334509 5 8 C4.01 8 3.02 8 2 8 C-0.1519437 4.77208445 -0.20086443 3.71599191 0 0 Z " fill="#303840" transform="translate(142,348)"/>
<path d="M0 0 C2.40921705 2.40921705 3.53812156 4.94334509 5 8 C4.01 8 3.02 8 2 8 C-0.1519437 4.77208445 -0.20086443 3.71599191 0 0 Z " fill="#303840" transform="translate(42,348)"/>
<path d="M0 0 C2.40921705 2.40921705 3.53812156 4.94334509 5 8 C4.01 8 3.02 8 2 8 C-0.1519437 4.77208445 -0.20086443 3.71599191 0 0 Z " fill="#303840" transform="translate(392,298)"/>
<path d="M0 0 C2.40921705 2.40921705 3.53812156 4.94334509 5 8 C4.01 8 3.02 8 2 8 C-0.1519437 4.77208445 -0.20086443 3.71599191 0 0 Z " fill="#303840" transform="translate(292,298)"/>
<path d="M0 0 C2.40921705 2.40921705 3.53812156 4.94334509 5 8 C4.01 8 3.02 8 2 8 C-0.1519437 4.77208445 -0.20086443 3.71599191 0 0 Z " fill="#303840" transform="translate(192,298)"/>
<path d="M0 0 C2.40921705 2.40921705 3.53812156 4.94334509 5 8 C4.01 8 3.02 8 2 8 C-0.1519437 4.77208445 -0.20086443 3.71599191 0 0 Z " fill="#303840" transform="translate(92,298)"/>
<path d="M0 0 C2.40921705 2.40921705 3.53812156 4.94334509 5 8 C4.01 8 3.02 8 2 8 C-0.1519437 4.77208445 -0.20086443 3.71599191 0 0 Z " fill="#303840" transform="translate(442,248)"/>
<path d="M0 0 C2.40921705 2.40921705 3.53812156 4.94334509 5 8 C4.01 8 3.02 8 2 8 C-0.1519437 4.77208445 -0.20086443 3.71599191 0 0 Z " fill="#303840" transform="translate(342,248)"/>
<path d="M0 0 C2.40921705 2.40921705 3.53812156 4.94334509 5 8 C4.01 8 3.02 8 2 8 C-0.1519437 4.77208445 -0.20086443 3.71599191 0 0 Z " fill="#303840" transform="translate(242,248)"/>
<path d="M0 0 C2.40921705 2.40921705 3.53812156 4.94334509 5 8 C4.01 8 3.02 8 2 8 C-0.1519437 4.77208445 -0.20086443 3.71599191 0 0 Z " fill="#303840" transform="translate(142,248)"/>
<path d="M0 0 C2.40921705 2.40921705 3.53812156 4.94334509 5 8 C4.01 8 3.02 8 2 8 C-0.1519437 4.77208445 -0.20086443 3.71599191 0 0 Z " fill="#303840" transform="translate(42,248)"/>
<path d="M0 0 C2.40921705 2.40921705 3.53812156 4.94334509 5 8 C4.01 8 3.02 8 2 8 C-0.1519437 4.77208445 -0.20086443 3.71599191 0 0 Z " fill="#303840" transform="translate(392,198)"/>
<path d="M0 0 C2.40921705 2.40921705 3.53812156 4.94334509 5 8 C4.01 8 3.02 8 2 8 C-0.1519437 4.77208445 -0.20086443 3.71599191 0 0 Z " fill="#303840" transform="translate(292,198)"/>
<path d="M0 0 C2.40921705 2.40921705 3.53812156 4.94334509 5 8 C4.01 8 3.02 8 2 8 C-0.1519437 4.77208445 -0.20086443 3.71599191 0 0 Z " fill="#303840" transform="translate(192,198)"/>
<path d="M0 0 C2.40921705 2.40921705 3.53812156 4.94334509 5 8 C4.01 8 3.02 8 2 8 C-0.1519437 4.77208445 -0.20086443 3.71599191 0 0 Z " fill="#303840" transform="translate(92,198)"/>
<path d="M0 0 C2.40921705 2.40921705 3.53812156 4.94334509 5 8 C4.01 8 3.02 8 2 8 C-0.1519437 4.77208445 -0.20086443 3.71599191 0 0 Z " fill="#303840" transform="translate(442,148)"/>
<path d="M0 0 C2.40921705 2.40921705 3.53812156 4.94334509 5 8 C4.01 8 3.02 8 2 8 C-0.1519437 4.77208445 -0.20086443 3.71599191 0 0 Z " fill="#303840" transform="translate(342,148)"/>
<path d="M0 0 C2.40921705 2.40921705 3.53812156 4.94334509 5 8 C4.01 8 3.02 8 2 8 C-0.1519437 4.77208445 -0.20086443 3.71599191 0 0 Z " fill="#303840" transform="translate(242,148)"/>
<path d="M0 0 C2.40921705 2.40921705 3.53812156 4.94334509 5 8 C4.01 8 3.02 8 2 8 C-0.1519437 4.77208445 -0.20086443 3.71599191 0 0 Z " fill="#303840" transform="translate(142,148)"/>
<path d="M0 0 C2.40921705 2.40921705 3.53812156 4.94334509 5 8 C4.01 8 3.02 8 2 8 C-0.1519437 4.77208445 -0.20086443 3.71599191 0 0 Z " fill="#303840" transform="translate(42,148)"/>
<path d="M0 0 C2.40921705 2.40921705 3.53812156 4.94334509 5 8 C4.01 8 3.02 8 2 8 C-0.1519437 4.77208445 -0.20086443 3.71599191 0 0 Z " fill="#303840" transform="translate(392,98)"/>
<path d="M0 0 C2.40921705 2.40921705 3.53812156 4.94334509 5 8 C4.01 8 3.02 8 2 8 C-0.1519437 4.77208445 -0.20086443 3.71599191 0 0 Z " fill="#303840" transform="translate(292,98)"/>
<path d="M0 0 C2.40921705 2.40921705 3.53812156 4.94334509 5 8 C4.01 8 3.02 8 2 8 C-0.1519437 4.77208445 -0.20086443 3.71599191 0 0 Z " fill="#303840" transform="translate(192,98)"/>
<path d="M0 0 C2.40921705 2.40921705 3.53812156 4.94334509 5 8 C4.01 8 3.02 8 2 8 C-0.1519437 4.77208445 -0.20086443 3.71599191 0 0 Z " fill="#303840" transform="translate(92,98)"/>
<path d="M0 0 C2.40921705 2.40921705 3.53812156 4.94334509 5 8 C4.01 8 3.02 8 2 8 C-0.1519437 4.77208445 -0.20086443 3.71599191 0 0 Z " fill="#303840" transform="translate(442,48)"/>
<path d="M0 0 C2.40921705 2.40921705 3.53812156 4.94334509 5 8 C4.01 8 3.02 8 2 8 C-0.1519437 4.77208445 -0.20086443 3.71599191 0 0 Z " fill="#303840" transform="translate(342,48)"/>
<path d="M0 0 C2.40921705 2.40921705 3.53812156 4.94334509 5 8 C4.01 8 3.02 8 2 8 C-0.1519437 4.77208445 -0.20086443 3.71599191 0 0 Z " fill="#303840" transform="translate(242,48)"/>
<path d="M0 0 C2.40921705 2.40921705 3.53812156 4.94334509 5 8 C4.01 8 3.02 8 2 8 C-0.1519437 4.77208445 -0.20086443 3.71599191 0 0 Z " fill="#303840" transform="translate(142,48)"/>
<path d="M0 0 C2.40921705 2.40921705 3.53812156 4.94334509 5 8 C4.01 8 3.02 8 2 8 C-0.1519437 4.77208445 -0.20086443 3.71599191 0 0 Z " fill="#303840" transform="translate(42,48)"/>
</svg>
